  0
SECTION
  2
HEADER
  9
$ANGBASE
  50
0.0
  9
$ANGDIR
  70
1
  9
$MEASUREMENT
  70
0
  0
ENDSEC
  0
SECTION
  2
TABLES
  0
TABLE
  2
LTYPE
  70
4
  0
LTYPE
  5
40F
  2
CONTINUOUS
  70
0
  3
Solid line
  72
65
  73
0
  40
0.0
  0
LTYPE
  5
410
  2
DASHDOT
 70
0
  3
Dash Dot ____ _ ____ _
 72
65
 73
4
 40
2.0
 49
1.25
 49
-0.25
 49
0.25
 49
-0.25
  0
LTYPE
  5
411
  2
DASHED
 70
0
  3
Dashed __ __ __ __ __
 72
65
 73
2
 40
0.75
 49
0.5
 49
-0.25
  0
LTYPE
  5
43B
  2
DOTTED
 70
0
  3
Dotted .  .  .  .
 72
65
 73
2
 40
0.2
 49
0.0
 49
-0.2
  0
ENDTAB
  0
TABLE
  2
STYLE
  70
4
  0
STYLE
  2
KICAD
  70
0
  40
0
  41
1
  42
1
  50
0
  71
0
  3
isocp.shx
  0
STYLE
  2
KICADB
  70
0
  40
0
  41
1
  42
1
  50
0
  71
0
  3
isocp.shx
  0
STYLE
  2
KICADI
  70
0
  40
0
  41
1
  42
1
  50
15
  71
0
  3
isocp.shx
  0
STYLE
  2
KICADBI
  70
0
  40
0
  41
1
  42
1
  50
15
  71
0
  3
isocp.shx
  0
ENDTAB
  0
TABLE
  2
LAYER
  70
1
  0
LAYER
  2
BLACK
  70
0
  62
7
  6
CONTINUOUS
  0
ENDTAB
  0
ENDSEC
  0
SECTION
  2
ENTITIES
0
LINE
8
BLACK
6
CONTINUOUS
10
4.48161
20
-4.9879
11
4.4877
21
-4.99042
0
LINE
8
BLACK
6
CONTINUOUS
10
4.4877
20
-4.99042
11
4.49318
21
-4.99409
0
LINE
8
BLACK
6
CONTINUOUS
10
4.49318
20
-4.99409
11
4.49784
21
-4.99875
0
LINE
8
BLACK
6
CONTINUOUS
10
4.49784
20
-4.99875
11
4.50151
21
-5.00423
0
LINE
8
BLACK
6
CONTINUOUS
10
4.50151
20
-5.00423
11
4.50403
21
-5.01032
0
LINE
8
BLACK
6
CONTINUOUS
10
4.50403
20
-5.01032
11
4.50531
21
-5.01678
0
LINE
8
BLACK
6
CONTINUOUS
10
4.50531
20
-5.01678
11
4.50531
21
-5.02337
0
LINE
8
BLACK
6
CONTINUOUS
10
4.50531
20
-5.02337
11
4.50403
21
-5.02984
0
LINE
8
BLACK
6
CONTINUOUS
10
4.50403
20
-5.02984
11
4.50151
21
-5.03593
0
LINE
8
BLACK
6
CONTINUOUS
10
4.50151
20
-5.03593
11
4.49784
21
-5.04141
0
LINE
8
BLACK
6
CONTINUOUS
10
4.49784
20
-5.04141
11
4.49318
21
-5.04607
0
LINE
8
BLACK
6
CONTINUOUS
10
4.49318
20
-5.04607
11
4.4877
21
-5.04973
0
LINE
8
BLACK
6
CONTINUOUS
10
4.4877
20
-5.04973
11
4.48161
21
-5.05226
0
LINE
8
BLACK
6
CONTINUOUS
10
4.48161
20
-5.05226
11
4.47515
21
-5.05354
0
LINE
8
BLACK
6
CONTINUOUS
10
4.47515
20
-5.05354
11
4.46855
21
-5.05354
0
LINE
8
BLACK
6
CONTINUOUS
10
4.46855
20
-5.05354
11
4.46209
21
-5.05226
0
LINE
8
BLACK
6
CONTINUOUS
10
4.46209
20
-5.05226
11
4.456
21
-5.04973
0
LINE
8
BLACK
6
CONTINUOUS
10
4.456
20
-5.04973
11
4.45052
21
-5.04607
0
LINE
8
BLACK
6
CONTINUOUS
10
4.45052
20
-5.04607
11
4.44586
21
-5.04141
0
LINE
8
BLACK
6
CONTINUOUS
10
4.44586
20
-5.04141
11
4.44219
21
-5.03593
0
LINE
8
BLACK
6
CONTINUOUS
10
4.44219
20
-5.03593
11
4.43967
21
-5.02984
0
LINE
8
BLACK
6
CONTINUOUS
10
4.43967
20
-5.02984
11
4.43839
21
-5.02337
0
LINE
8
BLACK
6
CONTINUOUS
10
4.43839
20
-5.02337
11
4.43839
21
-5.01678
0
LINE
8
BLACK
6
CONTINUOUS
10
4.43839
20
-5.01678
11
4.43967
21
-5.01032
0
LINE
8
BLACK
6
CONTINUOUS
10
4.43967
20
-5.01032
11
4.44219
21
-5.00423
0
LINE
8
BLACK
6
CONTINUOUS
10
4.44219
20
-5.00423
11
4.44586
21
-4.99875
0
LINE
8
BLACK
6
CONTINUOUS
10
4.44586
20
-4.99875
11
4.45052
21
-4.99409
0
LINE
8
BLACK
6
CONTINUOUS
10
4.45052
20
-4.99409
11
4.456
21
-4.99042
0
LINE
8
BLACK
6
CONTINUOUS
10
4.456
20
-4.99042
11
4.46209
21
-4.9879
0
LINE
8
BLACK
6
CONTINUOUS
10
4.46209
20
-4.9879
11
4.46855
21
-4.98661
0
LINE
8
BLACK
6
CONTINUOUS
10
4.46855
20
-4.98661
11
4.47515
21
-4.98661
0
LINE
8
BLACK
6
CONTINUOUS
10
4.47515
20
-4.98661
11
4.48161
21
-4.9879
0
LINE
8
BLACK
6
CONTINUOUS
10
5.39106
20
-4.9879
11
5.39715
21
-4.99042
0
LINE
8
BLACK
6
CONTINUOUS
10
5.39715
20
-4.99042
11
5.40263
21
-4.99409
0
LINE
8
BLACK
6
CONTINUOUS
10
5.40263
20
-4.99409
11
5.40729
21
-4.99875
0
LINE
8
BLACK
6
CONTINUOUS
10
5.40729
20
-4.99875
11
5.41096
21
-5.00423
0
LINE
8
BLACK
6
CONTINUOUS
10
5.41096
20
-5.00423
11
5.41348
21
-5.01032
0
LINE
8
BLACK
6
CONTINUOUS
10
5.41348
20
-5.01032
11
5.41476
21
-5.01678
0
LINE
8
BLACK
6
CONTINUOUS
10
5.41476
20
-5.01678
11
5.41476
21
-5.02337
0
LINE
8
BLACK
6
CONTINUOUS
10
5.41476
20
-5.02337
11
5.41348
21
-5.02984
0
LINE
8
BLACK
6
CONTINUOUS
10
5.41348
20
-5.02984
11
5.41096
21
-5.03593
0
LINE
8
BLACK
6
CONTINUOUS
10
5.41096
20
-5.03593
11
5.40729
21
-5.04141
0
LINE
8
BLACK
6
CONTINUOUS
10
5.40729
20
-5.04141
11
5.40263
21
-5.04607
0
LINE
8
BLACK
6
CONTINUOUS
10
5.40263
20
-5.04607
11
5.39715
21
-5.04973
0
LINE
8
BLACK
6
CONTINUOUS
10
5.39715
20
-5.04973
11
5.39106
21
-5.05226
0
LINE
8
BLACK
6
CONTINUOUS
10
5.39106
20
-5.05226
11
5.3846
21
-5.05354
0
LINE
8
BLACK
6
CONTINUOUS
10
5.3846
20
-5.05354
11
5.378
21
-5.05354
0
LINE
8
BLACK
6
CONTINUOUS
10
5.378
20
-5.05354
11
5.37154
21
-5.05226
0
LINE
8
BLACK
6
CONTINUOUS
10
5.37154
20
-5.05226
11
5.36545
21
-5.04973
0
LINE
8
BLACK
6
CONTINUOUS
10
5.36545
20
-5.04973
11
5.35997
21
-5.04607
0
LINE
8
BLACK
6
CONTINUOUS
10
5.35997
20
-5.04607
11
5.35531
21
-5.04141
0
LINE
8
BLACK
6
CONTINUOUS
10
5.35531
20
-5.04141
11
5.35164
21
-5.03593
0
LINE
8
BLACK
6
CONTINUOUS
10
5.35164
20
-5.03593
11
5.34912
21
-5.02984
0
LINE
8
BLACK
6
CONTINUOUS
10
5.34912
20
-5.02984
11
5.34783
21
-5.02337
0
LINE
8
BLACK
6
CONTINUOUS
10
5.34783
20
-5.02337
11
5.34783
21
-5.01678
0
LINE
8
BLACK
6
CONTINUOUS
10
5.34783
20
-5.01678
11
5.34912
21
-5.01032
0
LINE
8
BLACK
6
CONTINUOUS
10
5.34912
20
-5.01032
11
5.35164
21
-5.00423
0
LINE
8
BLACK
6
CONTINUOUS
10
5.35164
20
-5.00423
11
5.35531
21
-4.99875
0
LINE
8
BLACK
6
CONTINUOUS
10
5.35531
20
-4.99875
11
5.35997
21
-4.99409
0
LINE
8
BLACK
6
CONTINUOUS
10
5.35997
20
-4.99409
11
5.36545
21
-4.99042
0
LINE
8
BLACK
6
CONTINUOUS
10
5.36545
20
-4.99042
11
5.37154
21
-4.9879
0
LINE
8
BLACK
6
CONTINUOUS
10
5.37154
20
-4.9879
11
5.378
21
-4.98661
0
LINE
8
BLACK
6
CONTINUOUS
10
5.378
20
-4.98661
11
5.3846
21
-4.98661
0
LINE
8
BLACK
6
CONTINUOUS
10
5.3846
20
-4.98661
11
5.39106
21
-4.9879
0
LINE
8
BLACK
6
CONTINUOUS
10
4.50531
20
-4.95354
11
4.43839
21
-4.95354
0
LINE
8
BLACK
6
CONTINUOUS
10
4.43839
20
-4.95354
11
4.43839
21
-4.88661
0
LINE
8
BLACK
6
CONTINUOUS
10
4.43839
20
-4.88661
11
4.50531
21
-4.88661
0
LINE
8
BLACK
6
CONTINUOUS
10
4.50531
20
-4.88661
11
4.50531
21
-4.95354
0
LINE
8
BLACK
6
CONTINUOUS
10
5.41476
20
-4.95354
11
5.34783
21
-4.95354
0
LINE
8
BLACK
6
CONTINUOUS
10
5.34783
20
-4.95354
11
5.34783
21
-4.88661
0
LINE
8
BLACK
6
CONTINUOUS
10
5.34783
20
-4.88661
11
5.41476
21
-4.88661
0
LINE
8
BLACK
6
CONTINUOUS
10
5.41476
20
-4.88661
11
5.41476
21
-4.95354
0
LINE
8
BLACK
6
CONTINUOUS
10
4.48161
20
-4.7879
11
4.4877
21
-4.79042
0
LINE
8
BLACK
6
CONTINUOUS
10
4.4877
20
-4.79042
11
4.49318
21
-4.79409
0
LINE
8
BLACK
6
CONTINUOUS
10
4.49318
20
-4.79409
11
4.49784
21
-4.79875
0
LINE
8
BLACK
6
CONTINUOUS
10
4.49784
20
-4.79875
11
4.50151
21
-4.80423
0
LINE
8
BLACK
6
CONTINUOUS
10
4.50151
20
-4.80423
11
4.50403
21
-4.81032
0
LINE
8
BLACK
6
CONTINUOUS
10
4.50403
20
-4.81032
11
4.50531
21
-4.81678
0
LINE
8
BLACK
6
CONTINUOUS
10
4.50531
20
-4.81678
11
4.50531
21
-4.82337
0
LINE
8
BLACK
6
CONTINUOUS
10
4.50531
20
-4.82337
11
4.50403
21
-4.82984
0
LINE
8
BLACK
6
CONTINUOUS
10
4.50403
20
-4.82984
11
4.50151
21
-4.83593
0
LINE
8
BLACK
6
CONTINUOUS
10
4.50151
20
-4.83593
11
4.49784
21
-4.84141
0
LINE
8
BLACK
6
CONTINUOUS
10
4.49784
20
-4.84141
11
4.49318
21
-4.84607
0
LINE
8
BLACK
6
CONTINUOUS
10
4.49318
20
-4.84607
11
4.4877
21
-4.84973
0
LINE
8
BLACK
6
CONTINUOUS
10
4.4877
20
-4.84973
11
4.48161
21
-4.85226
0
LINE
8
BLACK
6
CONTINUOUS
10
4.48161
20
-4.85226
11
4.47515
21
-4.85354
0
LINE
8
BLACK
6
CONTINUOUS
10
4.47515
20
-4.85354
11
4.46855
21
-4.85354
0
LINE
8
BLACK
6
CONTINUOUS
10
4.46855
20
-4.85354
11
4.46209
21
-4.85226
0
LINE
8
BLACK
6
CONTINUOUS
10
4.46209
20
-4.85226
11
4.456
21
-4.84973
0
LINE
8
BLACK
6
CONTINUOUS
10
4.456
20
-4.84973
11
4.45052
21
-4.84607
0
LINE
8
BLACK
6
CONTINUOUS
10
4.45052
20
-4.84607
11
4.44586
21
-4.84141
0
LINE
8
BLACK
6
CONTINUOUS
10
4.44586
20
-4.84141
11
4.44219
21
-4.83593
0
LINE
8
BLACK
6
CONTINUOUS
10
4.44219
20
-4.83593
11
4.43967
21
-4.82984
0
LINE
8
BLACK
6
CONTINUOUS
10
4.43967
20
-4.82984
11
4.43839
21
-4.82337
0
LINE
8
BLACK
6
CONTINUOUS
10
4.43839
20
-4.82337
11
4.43839
21
-4.81678
0
LINE
8
BLACK
6
CONTINUOUS
10
4.43839
20
-4.81678
11
4.43967
21
-4.81032
0
LINE
8
BLACK
6
CONTINUOUS
10
4.43967
20
-4.81032
11
4.44219
21
-4.80423
0
LINE
8
BLACK
6
CONTINUOUS
10
4.44219
20
-4.80423
11
4.44586
21
-4.79875
0
LINE
8
BLACK
6
CONTINUOUS
10
4.44586
20
-4.79875
11
4.45052
21
-4.79409
0
LINE
8
BLACK
6
CONTINUOUS
10
4.45052
20
-4.79409
11
4.456
21
-4.79042
0
LINE
8
BLACK
6
CONTINUOUS
10
4.456
20
-4.79042
11
4.46209
21
-4.7879
0
LINE
8
BLACK
6
CONTINUOUS
10
4.46209
20
-4.7879
11
4.46855
21
-4.78661
0
LINE
8
BLACK
6
CONTINUOUS
10
4.46855
20
-4.78661
11
4.47515
21
-4.78661
0
LINE
8
BLACK
6
CONTINUOUS
10
4.47515
20
-4.78661
11
4.48161
21
-4.7879
0
LINE
8
BLACK
6
CONTINUOUS
10
5.39106
20
-4.7879
11
5.39715
21
-4.79042
0
LINE
8
BLACK
6
CONTINUOUS
10
5.39715
20
-4.79042
11
5.40263
21
-4.79409
0
LINE
8
BLACK
6
CONTINUOUS
10
5.40263
20
-4.79409
11
5.40729
21
-4.79875
0
LINE
8
BLACK
6
CONTINUOUS
10
5.40729
20
-4.79875
11
5.41096
21
-4.80423
0
LINE
8
BLACK
6
CONTINUOUS
10
5.41096
20
-4.80423
11
5.41348
21
-4.81032
0
LINE
8
BLACK
6
CONTINUOUS
10
5.41348
20
-4.81032
11
5.41476
21
-4.81678
0
LINE
8
BLACK
6
CONTINUOUS
10
5.41476
20
-4.81678
11
5.41476
21
-4.82337
0
LINE
8
BLACK
6
CONTINUOUS
10
5.41476
20
-4.82337
11
5.41348
21
-4.82984
0
LINE
8
BLACK
6
CONTINUOUS
10
5.41348
20
-4.82984
11
5.41096
21
-4.83593
0
LINE
8
BLACK
6
CONTINUOUS
10
5.41096
20
-4.83593
11
5.40729
21
-4.84141
0
LINE
8
BLACK
6
CONTINUOUS
10
5.40729
20
-4.84141
11
5.40263
21
-4.84607
0
LINE
8
BLACK
6
CONTINUOUS
10
5.40263
20
-4.84607
11
5.39715
21
-4.84973
0
LINE
8
BLACK
6
CONTINUOUS
10
5.39715
20
-4.84973
11
5.39106
21
-4.85226
0
LINE
8
BLACK
6
CONTINUOUS
10
5.39106
20
-4.85226
11
5.3846
21
-4.85354
0
LINE
8
BLACK
6
CONTINUOUS
10
5.3846
20
-4.85354
11
5.378
21
-4.85354
0
LINE
8
BLACK
6
CONTINUOUS
10
5.378
20
-4.85354
11
5.37154
21
-4.85226
0
LINE
8
BLACK
6
CONTINUOUS
10
5.37154
20
-4.85226
11
5.36545
21
-4.84973
0
LINE
8
BLACK
6
CONTINUOUS
10
5.36545
20
-4.84973
11
5.35997
21
-4.84607
0
LINE
8
BLACK
6
CONTINUOUS
10
5.35997
20
-4.84607
11
5.35531
21
-4.84141
0
LINE
8
BLACK
6
CONTINUOUS
10
5.35531
20
-4.84141
11
5.35164
21
-4.83593
0
LINE
8
BLACK
6
CONTINUOUS
10
5.35164
20
-4.83593
11
5.34912
21
-4.82984
0
LINE
8
BLACK
6
CONTINUOUS
10
5.34912
20
-4.82984
11
5.34783
21
-4.82337
0
LINE
8
BLACK
6
CONTINUOUS
10
5.34783
20
-4.82337
11
5.34783
21
-4.81678
0
LINE
8
BLACK
6
CONTINUOUS
10
5.34783
20
-4.81678
11
5.34912
21
-4.81032
0
LINE
8
BLACK
6
CONTINUOUS
10
5.34912
20
-4.81032
11
5.35164
21
-4.80423
0
LINE
8
BLACK
6
CONTINUOUS
10
5.35164
20
-4.80423
11
5.35531
21
-4.79875
0
LINE
8
BLACK
6
CONTINUOUS
10
5.35531
20
-4.79875
11
5.35997
21
-4.79409
0
LINE
8
BLACK
6
CONTINUOUS
10
5.35997
20
-4.79409
11
5.36545
21
-4.79042
0
LINE
8
BLACK
6
CONTINUOUS
10
5.36545
20
-4.79042
11
5.37154
21
-4.7879
0
LINE
8
BLACK
6
CONTINUOUS
10
5.37154
20
-4.7879
11
5.378
21
-4.78661
0
LINE
8
BLACK
6
CONTINUOUS
10
5.378
20
-4.78661
11
5.3846
21
-4.78661
0
LINE
8
BLACK
6
CONTINUOUS
10
5.3846
20
-4.78661
11
5.39106
21
-4.7879
0
LINE
8
BLACK
6
CONTINUOUS
10
5.39106
20
-4.6879
11
5.39715
21
-4.69042
0
LINE
8
BLACK
6
CONTINUOUS
10
5.39715
20
-4.69042
11
5.40263
21
-4.69409
0
LINE
8
BLACK
6
CONTINUOUS
10
5.40263
20
-4.69409
11
5.40729
21
-4.69875
0
LINE
8
BLACK
6
CONTINUOUS
10
5.40729
20
-4.69875
11
5.41096
21
-4.70423
0
LINE
8
BLACK
6
CONTINUOUS
10
5.41096
20
-4.70423
11
5.41348
21
-4.71032
0
LINE
8
BLACK
6
CONTINUOUS
10
5.41348
20
-4.71032
11
5.41476
21
-4.71678
0
LINE
8
BLACK
6
CONTINUOUS
10
5.41476
20
-4.71678
11
5.41476
21
-4.72337
0
LINE
8
BLACK
6
CONTINUOUS
10
5.41476
20
-4.72337
11
5.41348
21
-4.72984
0
LINE
8
BLACK
6
CONTINUOUS
10
5.41348
20
-4.72984
11
5.41096
21
-4.73593
0
LINE
8
BLACK
6
CONTINUOUS
10
5.41096
20
-4.73593
11
5.40729
21
-4.74141
0
LINE
8
BLACK
6
CONTINUOUS
10
5.40729
20
-4.74141
11
5.40263
21
-4.74607
0
LINE
8
BLACK
6
CONTINUOUS
10
5.40263
20
-4.74607
11
5.39715
21
-4.74973
0
LINE
8
BLACK
6
CONTINUOUS
10
5.39715
20
-4.74973
11
5.39106
21
-4.75226
0
LINE
8
BLACK
6
CONTINUOUS
10
5.39106
20
-4.75226
11
5.3846
21
-4.75354
0
LINE
8
BLACK
6
CONTINUOUS
10
5.3846
20
-4.75354
11
5.378
21
-4.75354
0
LINE
8
BLACK
6
CONTINUOUS
10
5.378
20
-4.75354
11
5.37154
21
-4.75226
0
LINE
8
BLACK
6
CONTINUOUS
10
5.37154
20
-4.75226
11
5.36545
21
-4.74973
0
LINE
8
BLACK
6
CONTINUOUS
10
5.36545
20
-4.74973
11
5.35997
21
-4.74607
0
LINE
8
BLACK
6
CONTINUOUS
10
5.35997
20
-4.74607
11
5.35531
21
-4.74141
0
LINE
8
BLACK
6
CONTINUOUS
10
5.35531
20
-4.74141
11
5.35164
21
-4.73593
0
LINE
8
BLACK
6
CONTINUOUS
10
5.35164
20
-4.73593
11
5.34912
21
-4.72984
0
LINE
8
BLACK
6
CONTINUOUS
10
5.34912
20
-4.72984
11
5.34783
21
-4.72337
0
LINE
8
BLACK
6
CONTINUOUS
10
5.34783
20
-4.72337
11
5.34783
21
-4.71678
0
LINE
8
BLACK
6
CONTINUOUS
10
5.34783
20
-4.71678
11
5.34912
21
-4.71032
0
LINE
8
BLACK
6
CONTINUOUS
10
5.34912
20
-4.71032
11
5.35164
21
-4.70423
0
LINE
8
BLACK
6
CONTINUOUS
10
5.35164
20
-4.70423
11
5.35531
21
-4.69875
0
LINE
8
BLACK
6
CONTINUOUS
10
5.35531
20
-4.69875
11
5.35997
21
-4.69409
0
LINE
8
BLACK
6
CONTINUOUS
10
5.35997
20
-4.69409
11
5.36545
21
-4.69042
0
LINE
8
BLACK
6
CONTINUOUS
10
5.36545
20
-4.69042
11
5.37154
21
-4.6879
0
LINE
8
BLACK
6
CONTINUOUS
10
5.37154
20
-4.6879
11
5.378
21
-4.68661
0
LINE
8
BLACK
6
CONTINUOUS
10
5.378
20
-4.68661
11
5.3846
21
-4.68661
0
LINE
8
BLACK
6
CONTINUOUS
10
5.3846
20
-4.68661
11
5.39106
21
-4.6879
0
LINE
8
BLACK
6
CONTINUOUS
10
4.48161
20
-4.6879
11
4.4877
21
-4.69042
0
LINE
8
BLACK
6
CONTINUOUS
10
4.4877
20
-4.69042
11
4.49318
21
-4.69409
0
LINE
8
BLACK
6
CONTINUOUS
10
4.49318
20
-4.69409
11
4.49784
21
-4.69875
0
LINE
8
BLACK
6
CONTINUOUS
10
4.49784
20
-4.69875
11
4.50151
21
-4.70423
0
LINE
8
BLACK
6
CONTINUOUS
10
4.50151
20
-4.70423
11
4.50403
21
-4.71032
0
LINE
8
BLACK
6
CONTINUOUS
10
4.50403
20
-4.71032
11
4.50531
21
-4.71678
0
LINE
8
BLACK
6
CONTINUOUS
10
4.50531
20
-4.71678
11
4.50531
21
-4.72337
0
LINE
8
BLACK
6
CONTINUOUS
10
4.50531
20
-4.72337
11
4.50403
21
-4.72984
0
LINE
8
BLACK
6
CONTINUOUS
10
4.50403
20
-4.72984
11
4.50151
21
-4.73593
0
LINE
8
BLACK
6
CONTINUOUS
10
4.50151
20
-4.73593
11
4.49784
21
-4.74141
0
LINE
8
BLACK
6
CONTINUOUS
10
4.49784
20
-4.74141
11
4.49318
21
-4.74607
0
LINE
8
BLACK
6
CONTINUOUS
10
4.49318
20
-4.74607
11
4.4877
21
-4.74973
0
LINE
8
BLACK
6
CONTINUOUS
10
4.4877
20
-4.74973
11
4.48161
21
-4.75226
0
LINE
8
BLACK
6
CONTINUOUS
10
4.48161
20
-4.75226
11
4.47515
21
-4.75354
0
LINE
8
BLACK
6
CONTINUOUS
10
4.47515
20
-4.75354
11
4.46855
21
-4.75354
0
LINE
8
BLACK
6
CONTINUOUS
10
4.46855
20
-4.75354
11
4.46209
21
-4.75226
0
LINE
8
BLACK
6
CONTINUOUS
10
4.46209
20
-4.75226
11
4.456
21
-4.74973
0
LINE
8
BLACK
6
CONTINUOUS
10
4.456
20
-4.74973
11
4.45052
21
-4.74607
0
LINE
8
BLACK
6
CONTINUOUS
10
4.45052
20
-4.74607
11
4.44586
21
-4.74141
0
LINE
8
BLACK
6
CONTINUOUS
10
4.44586
20
-4.74141
11
4.44219
21
-4.73593
0
LINE
8
BLACK
6
CONTINUOUS
10
4.44219
20
-4.73593
11
4.43967
21
-4.72984
0
LINE
8
BLACK
6
CONTINUOUS
10
4.43967
20
-4.72984
11
4.43839
21
-4.72337
0
LINE
8
BLACK
6
CONTINUOUS
10
4.43839
20
-4.72337
11
4.43839
21
-4.71678
0
LINE
8
BLACK
6
CONTINUOUS
10
4.43839
20
-4.71678
11
4.43967
21
-4.71032
0
LINE
8
BLACK
6
CONTINUOUS
10
4.43967
20
-4.71032
11
4.44219
21
-4.70423
0
LINE
8
BLACK
6
CONTINUOUS
10
4.44219
20
-4.70423
11
4.44586
21
-4.69875
0
LINE
8
BLACK
6
CONTINUOUS
10
4.44586
20
-4.69875
11
4.45052
21
-4.69409
0
LINE
8
BLACK
6
CONTINUOUS
10
4.45052
20
-4.69409
11
4.456
21
-4.69042
0
LINE
8
BLACK
6
CONTINUOUS
10
4.456
20
-4.69042
11
4.46209
21
-4.6879
0
LINE
8
BLACK
6
CONTINUOUS
10
4.46209
20
-4.6879
11
4.46855
21
-4.68661
0
LINE
8
BLACK
6
CONTINUOUS
10
4.46855
20
-4.68661
11
4.47515
21
-4.68661
0
LINE
8
BLACK
6
CONTINUOUS
10
4.47515
20
-4.68661
11
4.48161
21
-4.6879
0
LINE
8
BLACK
6
CONTINUOUS
10
5.39106
20
-4.5879
11
5.39715
21
-4.59042
0
LINE
8
BLACK
6
CONTINUOUS
10
5.39715
20
-4.59042
11
5.40263
21
-4.59409
0
LINE
8
BLACK
6
CONTINUOUS
10
5.40263
20
-4.59409
11
5.40729
21
-4.59875
0
LINE
8
BLACK
6
CONTINUOUS
10
5.40729
20
-4.59875
11
5.41096
21
-4.60423
0
LINE
8
BLACK
6
CONTINUOUS
10
5.41096
20
-4.60423
11
5.41348
21
-4.61032
0
LINE
8
BLACK
6
CONTINUOUS
10
5.41348
20
-4.61032
11
5.41476
21
-4.61678
0
LINE
8
BLACK
6
CONTINUOUS
10
5.41476
20
-4.61678
11
5.41476
21
-4.62337
0
LINE
8
BLACK
6
CONTINUOUS
10
5.41476
20
-4.62337
11
5.41348
21
-4.62984
0
LINE
8
BLACK
6
CONTINUOUS
10
5.41348
20
-4.62984
11
5.41096
21
-4.63593
0
LINE
8
BLACK
6
CONTINUOUS
10
5.41096
20
-4.63593
11
5.40729
21
-4.64141
0
LINE
8
BLACK
6
CONTINUOUS
10
5.40729
20
-4.64141
11
5.40263
21
-4.64607
0
LINE
8
BLACK
6
CONTINUOUS
10
5.40263
20
-4.64607
11
5.39715
21
-4.64973
0
LINE
8
BLACK
6
CONTINUOUS
10
5.39715
20
-4.64973
11
5.39106
21
-4.65226
0
LINE
8
BLACK
6
CONTINUOUS
10
5.39106
20
-4.65226
11
5.3846
21
-4.65354
0
LINE
8
BLACK
6
CONTINUOUS
10
5.3846
20
-4.65354
11
5.378
21
-4.65354
0
LINE
8
BLACK
6
CONTINUOUS
10
5.378
20
-4.65354
11
5.37154
21
-4.65226
0
LINE
8
BLACK
6
CONTINUOUS
10
5.37154
20
-4.65226
11
5.36545
21
-4.64973
0
LINE
8
BLACK
6
CONTINUOUS
10
5.36545
20
-4.64973
11
5.35997
21
-4.64607
0
LINE
8
BLACK
6
CONTINUOUS
10
5.35997
20
-4.64607
11
5.35531
21
-4.64141
0
LINE
8
BLACK
6
CONTINUOUS
10
5.35531
20
-4.64141
11
5.35164
21
-4.63593
0
LINE
8
BLACK
6
CONTINUOUS
10
5.35164
20
-4.63593
11
5.34912
21
-4.62984
0
LINE
8
BLACK
6
CONTINUOUS
10
5.34912
20
-4.62984
11
5.34783
21
-4.62337
0
LINE
8
BLACK
6
CONTINUOUS
10
5.34783
20
-4.62337
11
5.34783
21
-4.61678
0
LINE
8
BLACK
6
CONTINUOUS
10
5.34783
20
-4.61678
11
5.34912
21
-4.61032
0
LINE
8
BLACK
6
CONTINUOUS
10
5.34912
20
-4.61032
11
5.35164
21
-4.60423
0
LINE
8
BLACK
6
CONTINUOUS
10
5.35164
20
-4.60423
11
5.35531
21
-4.59875
0
LINE
8
BLACK
6
CONTINUOUS
10
5.35531
20
-4.59875
11
5.35997
21
-4.59409
0
LINE
8
BLACK
6
CONTINUOUS
10
5.35997
20
-4.59409
11
5.36545
21
-4.59042
0
LINE
8
BLACK
6
CONTINUOUS
10
5.36545
20
-4.59042
11
5.37154
21
-4.5879
0
LINE
8
BLACK
6
CONTINUOUS
10
5.37154
20
-4.5879
11
5.378
21
-4.58661
0
LINE
8
BLACK
6
CONTINUOUS
10
5.378
20
-4.58661
11
5.3846
21
-4.58661
0
LINE
8
BLACK
6
CONTINUOUS
10
5.3846
20
-4.58661
11
5.39106
21
-4.5879
0
LINE
8
BLACK
6
CONTINUOUS
10
4.48161
20
-4.5879
11
4.4877
21
-4.59042
0
LINE
8
BLACK
6
CONTINUOUS
10
4.4877
20
-4.59042
11
4.49318
21
-4.59409
0
LINE
8
BLACK
6
CONTINUOUS
10
4.49318
20
-4.59409
11
4.49784
21
-4.59875
0
LINE
8
BLACK
6
CONTINUOUS
10
4.49784
20
-4.59875
11
4.50151
21
-4.60423
0
LINE
8
BLACK
6
CONTINUOUS
10
4.50151
20
-4.60423
11
4.50403
21
-4.61032
0
LINE
8
BLACK
6
CONTINUOUS
10
4.50403
20
-4.61032
11
4.50531
21
-4.61678
0
LINE
8
BLACK
6
CONTINUOUS
10
4.50531
20
-4.61678
11
4.50531
21
-4.62337
0
LINE
8
BLACK
6
CONTINUOUS
10
4.50531
20
-4.62337
11
4.50403
21
-4.62984
0
LINE
8
BLACK
6
CONTINUOUS
10
4.50403
20
-4.62984
11
4.50151
21
-4.63593
0
LINE
8
BLACK
6
CONTINUOUS
10
4.50151
20
-4.63593
11
4.49784
21
-4.64141
0
LINE
8
BLACK
6
CONTINUOUS
10
4.49784
20
-4.64141
11
4.49318
21
-4.64607
0
LINE
8
BLACK
6
CONTINUOUS
10
4.49318
20
-4.64607
11
4.4877
21
-4.64973
0
LINE
8
BLACK
6
CONTINUOUS
10
4.4877
20
-4.64973
11
4.48161
21
-4.65226
0
LINE
8
BLACK
6
CONTINUOUS
10
4.48161
20
-4.65226
11
4.47515
21
-4.65354
0
LINE
8
BLACK
6
CONTINUOUS
10
4.47515
20
-4.65354
11
4.46855
21
-4.65354
0
LINE
8
BLACK
6
CONTINUOUS
10
4.46855
20
-4.65354
11
4.46209
21
-4.65226
0
LINE
8
BLACK
6
CONTINUOUS
10
4.46209
20
-4.65226
11
4.456
21
-4.64973
0
LINE
8
BLACK
6
CONTINUOUS
10
4.456
20
-4.64973
11
4.45052
21
-4.64607
0
LINE
8
BLACK
6
CONTINUOUS
10
4.45052
20
-4.64607
11
4.44586
21
-4.64141
0
LINE
8
BLACK
6
CONTINUOUS
10
4.44586
20
-4.64141
11
4.44219
21
-4.63593
0
LINE
8
BLACK
6
CONTINUOUS
10
4.44219
20
-4.63593
11
4.43967
21
-4.62984
0
LINE
8
BLACK
6
CONTINUOUS
10
4.43967
20
-4.62984
11
4.43839
21
-4.62337
0
LINE
8
BLACK
6
CONTINUOUS
10
4.43839
20
-4.62337
11
4.43839
21
-4.61678
0
LINE
8
BLACK
6
CONTINUOUS
10
4.43839
20
-4.61678
11
4.43967
21
-4.61032
0
LINE
8
BLACK
6
CONTINUOUS
10
4.43967
20
-4.61032
11
4.44219
21
-4.60423
0
LINE
8
BLACK
6
CONTINUOUS
10
4.44219
20
-4.60423
11
4.44586
21
-4.59875
0
LINE
8
BLACK
6
CONTINUOUS
10
4.44586
20
-4.59875
11
4.45052
21
-4.59409
0
LINE
8
BLACK
6
CONTINUOUS
10
4.45052
20
-4.59409
11
4.456
21
-4.59042
0
LINE
8
BLACK
6
CONTINUOUS
10
4.456
20
-4.59042
11
4.46209
21
-4.5879
0
LINE
8
BLACK
6
CONTINUOUS
10
4.46209
20
-4.5879
11
4.46855
21
-4.58661
0
LINE
8
BLACK
6
CONTINUOUS
10
4.46855
20
-4.58661
11
4.47515
21
-4.58661
0
LINE
8
BLACK
6
CONTINUOUS
10
4.47515
20
-4.58661
11
4.48161
21
-4.5879
0
LINE
8
BLACK
6
CONTINUOUS
10
5.39106
20
-3.9879
11
5.39715
21
-3.99042
0
LINE
8
BLACK
6
CONTINUOUS
10
5.39715
20
-3.99042
11
5.40263
21
-3.99409
0
LINE
8
BLACK
6
CONTINUOUS
10
5.40263
20
-3.99409
11
5.40729
21
-3.99875
0
LINE
8
BLACK
6
CONTINUOUS
10
5.40729
20
-3.99875
11
5.40839
21
-4.00039
0
LINE
8
BLACK
6
CONTINUOUS
10
5.40839
20
-4.00039
11
5.51911
21
-4.00039
0
LINE
8
BLACK
6
CONTINUOUS
10
5.51911
20
-4.00039
11
5.52008
21
-4.0003
0
LINE
8
BLACK
6
CONTINUOUS
10
5.52008
20
-4.0003
11
5.52105
21
-4.00039
0
LINE
8
BLACK
6
CONTINUOUS
10
5.52105
20
-4.00039
11
5.52394
21
-4.00068
0
LINE
8
BLACK
6
CONTINUOUS
10
5.52394
20
-4.00068
11
5.52765
21
-4.0018
0
LINE
8
BLACK
6
CONTINUOUS
10
5.52765
20
-4.0018
11
5.53107
21
-4.00363
0
LINE
8
BLACK
6
CONTINUOUS
10
5.53107
20
-4.00363
11
5.53407
21
-4.00609
0
LINE
8
BLACK
6
CONTINUOUS
10
5.53407
20
-4.00609
11
5.53468
21
-4.00684
0
LINE
8
BLACK
6
CONTINUOUS
10
5.53468
20
-4.00684
11
5.59324
21
-4.0654
0
LINE
8
BLACK
6
CONTINUOUS
10
5.59324
20
-4.0654
11
5.59399
21
-4.06601
0
LINE
8
BLACK
6
CONTINUOUS
10
5.59399
20
-4.06601
11
5.59645
21
-4.06901
0
LINE
8
BLACK
6
CONTINUOUS
10
5.59645
20
-4.06901
11
5.59827
21
-4.07243
0
LINE
8
BLACK
6
CONTINUOUS
10
5.59827
20
-4.07243
11
5.59827
21
-4.07243
0
LINE
8
BLACK
6
CONTINUOUS
10
5.59827
20
-4.07243
11
5.5994
21
-4.07614
0
LINE
8
BLACK
6
CONTINUOUS
10
5.5994
20
-4.07614
11
5.59978
21
-4.08
0
LINE
8
BLACK
6
CONTINUOUS
10
5.59978
20
-4.08
11
5.59969
21
-4.08097
0
LINE
8
BLACK
6
CONTINUOUS
10
5.59969
20
-4.08097
11
5.59969
21
-4.36774
0
LINE
8
BLACK
6
CONTINUOUS
10
5.59969
20
-4.36774
11
5.59978
21
-4.3687
0
LINE
8
BLACK
6
CONTINUOUS
10
5.59978
20
-4.3687
11
5.59969
21
-4.36967
0
LINE
8
BLACK
6
CONTINUOUS
10
5.59969
20
-4.36967
11
5.59969
21
-4.36967
0
LINE
8
BLACK
6
CONTINUOUS
10
5.59969
20
-4.36967
11
5.5994
21
-4.37256
0
LINE
8
BLACK
6
CONTINUOUS
10
5.5994
20
-4.37256
11
5.59827
21
-4.37627
0
LINE
8
BLACK
6
CONTINUOUS
10
5.59827
20
-4.37627
11
5.59645
21
-4.37969
0
LINE
8
BLACK
6
CONTINUOUS
10
5.59645
20
-4.37969
11
5.59399
21
-4.38269
0
LINE
8
BLACK
6
CONTINUOUS
10
5.59399
20
-4.38269
11
5.59324
21
-4.38331
0
LINE
8
BLACK
6
CONTINUOUS
10
5.59324
20
-4.38331
11
5.44323
21
-4.53331
0
LINE
8
BLACK
6
CONTINUOUS
10
5.44323
20
-4.53331
11
5.44261
21
-4.53407
0
LINE
8
BLACK
6
CONTINUOUS
10
5.44261
20
-4.53407
11
5.43961
21
-4.53653
0
LINE
8
BLACK
6
CONTINUOUS
10
5.43961
20
-4.53653
11
5.43619
21
-4.53835
0
LINE
8
BLACK
6
CONTINUOUS
10
5.43619
20
-4.53835
11
5.43248
21
-4.53948
0
LINE
8
BLACK
6
CONTINUOUS
10
5.43248
20
-4.53948
11
5.42959
21
-4.53976
0
LINE
8
BLACK
6
CONTINUOUS
10
5.42959
20
-4.53976
11
5.42863
21
-4.53986
0
LINE
8
BLACK
6
CONTINUOUS
10
5.42863
20
-4.53986
11
5.42766
21
-4.53976
0
LINE
8
BLACK
6
CONTINUOUS
10
5.42766
20
-4.53976
11
5.40839
21
-4.53976
0
LINE
8
BLACK
6
CONTINUOUS
10
5.40839
20
-4.53976
11
5.40729
21
-4.54141
0
LINE
8
BLACK
6
CONTINUOUS
10
5.40729
20
-4.54141
11
5.40263
21
-4.54607
0
LINE
8
BLACK
6
CONTINUOUS
10
5.40263
20
-4.54607
11
5.39715
21
-4.54973
0
LINE
8
BLACK
6
CONTINUOUS
10
5.39715
20
-4.54973
11
5.39106
21
-4.55226
0
LINE
8
BLACK
6
CONTINUOUS
10
5.39106
20
-4.55226
11
5.3846
21
-4.55354
0
LINE
8
BLACK
6
CONTINUOUS
10
5.3846
20
-4.55354
11
5.378
21
-4.55354
0
LINE
8
BLACK
6
CONTINUOUS
10
5.378
20
-4.55354
11
5.37154
21
-4.55226
0
LINE
8
BLACK
6
CONTINUOUS
10
5.37154
20
-4.55226
11
5.36545
21
-4.54973
0
LINE
8
BLACK
6
CONTINUOUS
10
5.36545
20
-4.54973
11
5.35997
21
-4.54607
0
LINE
8
BLACK
6
CONTINUOUS
10
5.35997
20
-4.54607
11
5.35531
21
-4.54141
0
LINE
8
BLACK
6
CONTINUOUS
10
5.35531
20
-4.54141
11
5.35164
21
-4.53593
0
LINE
8
BLACK
6
CONTINUOUS
10
5.35164
20
-4.53593
11
5.34912
21
-4.52984
0
LINE
8
BLACK
6
CONTINUOUS
10
5.34912
20
-4.52984
11
5.34783
21
-4.52337
0
LINE
8
BLACK
6
CONTINUOUS
10
5.34783
20
-4.52337
11
5.34783
21
-4.51678
0
LINE
8
BLACK
6
CONTINUOUS
10
5.34783
20
-4.51678
11
5.34912
21
-4.51032
0
LINE
8
BLACK
6
CONTINUOUS
10
5.34912
20
-4.51032
11
5.35164
21
-4.50423
0
LINE
8
BLACK
6
CONTINUOUS
10
5.35164
20
-4.50423
11
5.35531
21
-4.49875
0
LINE
8
BLACK
6
CONTINUOUS
10
5.35531
20
-4.49875
11
5.35997
21
-4.49409
0
LINE
8
BLACK
6
CONTINUOUS
10
5.35997
20
-4.49409
11
5.36545
21
-4.49042
0
LINE
8
BLACK
6
CONTINUOUS
10
5.36545
20
-4.49042
11
5.37154
21
-4.4879
0
LINE
8
BLACK
6
CONTINUOUS
10
5.37154
20
-4.4879
11
5.378
21
-4.48661
0
LINE
8
BLACK
6
CONTINUOUS
10
5.378
20
-4.48661
11
5.3846
21
-4.48661
0
LINE
8
BLACK
6
CONTINUOUS
10
5.3846
20
-4.48661
11
5.39106
21
-4.4879
0
LINE
8
BLACK
6
CONTINUOUS
10
5.39106
20
-4.4879
11
5.39715
21
-4.49042
0
LINE
8
BLACK
6
CONTINUOUS
10
5.39715
20
-4.49042
11
5.40263
21
-4.49409
0
LINE
8
BLACK
6
CONTINUOUS
10
5.40263
20
-4.49409
11
5.40729
21
-4.49875
0
LINE
8
BLACK
6
CONTINUOUS
10
5.40729
20
-4.49875
11
5.40839
21
-4.50039
0
LINE
8
BLACK
6
CONTINUOUS
10
5.40839
20
-4.50039
11
5.42047
21
-4.50039
0
LINE
8
BLACK
6
CONTINUOUS
10
5.42047
20
-4.50039
11
5.56032
21
-4.36055
0
LINE
8
BLACK
6
CONTINUOUS
10
5.56032
20
-4.36055
11
5.56031
21
-4.08815
0
LINE
8
BLACK
6
CONTINUOUS
10
5.56031
20
-4.08815
11
5.51193
21
-4.03976
0
LINE
8
BLACK
6
CONTINUOUS
10
5.51193
20
-4.03976
11
5.40839
21
-4.03976
0
LINE
8
BLACK
6
CONTINUOUS
10
5.40839
20
-4.03976
11
5.40729
21
-4.04141
0
LINE
8
BLACK
6
CONTINUOUS
10
5.40729
20
-4.04141
11
5.40263
21
-4.04607
0
LINE
8
BLACK
6
CONTINUOUS
10
5.40263
20
-4.04607
11
5.39715
21
-4.04973
0
LINE
8
BLACK
6
CONTINUOUS
10
5.39715
20
-4.04973
11
5.39106
21
-4.05226
0
LINE
8
BLACK
6
CONTINUOUS
10
5.39106
20
-4.05226
11
5.3846
21
-4.05354
0
LINE
8
BLACK
6
CONTINUOUS
10
5.3846
20
-4.05354
11
5.378
21
-4.05354
0
LINE
8
BLACK
6
CONTINUOUS
10
5.378
20
-4.05354
11
5.37154
21
-4.05226
0
LINE
8
BLACK
6
CONTINUOUS
10
5.37154
20
-4.05226
11
5.36545
21
-4.04973
0
LINE
8
BLACK
6
CONTINUOUS
10
5.36545
20
-4.04973
11
5.35997
21
-4.04607
0
LINE
8
BLACK
6
CONTINUOUS
10
5.35997
20
-4.04607
11
5.35531
21
-4.04141
0
LINE
8
BLACK
6
CONTINUOUS
10
5.35531
20
-4.04141
11
5.35164
21
-4.03593
0
LINE
8
BLACK
6
CONTINUOUS
10
5.35164
20
-4.03593
11
5.34912
21
-4.02984
0
LINE
8
BLACK
6
CONTINUOUS
10
5.34912
20
-4.02984
11
5.34783
21
-4.02337
0
LINE
8
BLACK
6
CONTINUOUS
10
5.34783
20
-4.02337
11
5.34783
21
-4.01678
0
LINE
8
BLACK
6
CONTINUOUS
10
5.34783
20
-4.01678
11
5.34912
21
-4.01032
0
LINE
8
BLACK
6
CONTINUOUS
10
5.34912
20
-4.01032
11
5.35164
21
-4.00423
0
LINE
8
BLACK
6
CONTINUOUS
10
5.35164
20
-4.00423
11
5.35531
21
-3.99875
0
LINE
8
BLACK
6
CONTINUOUS
10
5.35531
20
-3.99875
11
5.35997
21
-3.99409
0
LINE
8
BLACK
6
CONTINUOUS
10
5.35997
20
-3.99409
11
5.36545
21
-3.99042
0
LINE
8
BLACK
6
CONTINUOUS
10
5.36545
20
-3.99042
11
5.37154
21
-3.9879
0
LINE
8
BLACK
6
CONTINUOUS
10
5.37154
20
-3.9879
11
5.378
21
-3.98661
0
LINE
8
BLACK
6
CONTINUOUS
10
5.378
20
-3.98661
11
5.3846
21
-3.98661
0
LINE
8
BLACK
6
CONTINUOUS
10
5.3846
20
-3.98661
11
5.39106
21
-3.9879
0
LINE
8
BLACK
6
CONTINUOUS
10
4.48161
20
-4.4879
11
4.4877
21
-4.49042
0
LINE
8
BLACK
6
CONTINUOUS
10
4.4877
20
-4.49042
11
4.49318
21
-4.49409
0
LINE
8
BLACK
6
CONTINUOUS
10
4.49318
20
-4.49409
11
4.49784
21
-4.49875
0
LINE
8
BLACK
6
CONTINUOUS
10
4.49784
20
-4.49875
11
4.50151
21
-4.50423
0
LINE
8
BLACK
6
CONTINUOUS
10
4.50151
20
-4.50423
11
4.50403
21
-4.51032
0
LINE
8
BLACK
6
CONTINUOUS
10
4.50403
20
-4.51032
11
4.50531
21
-4.51678
0
LINE
8
BLACK
6
CONTINUOUS
10
4.50531
20
-4.51678
11
4.50531
21
-4.52337
0
LINE
8
BLACK
6
CONTINUOUS
10
4.50531
20
-4.52337
11
4.50403
21
-4.52984
0
LINE
8
BLACK
6
CONTINUOUS
10
4.50403
20
-4.52984
11
4.50151
21
-4.53593
0
LINE
8
BLACK
6
CONTINUOUS
10
4.50151
20
-4.53593
11
4.49784
21
-4.54141
0
LINE
8
BLACK
6
CONTINUOUS
10
4.49784
20
-4.54141
11
4.49318
21
-4.54607
0
LINE
8
BLACK
6
CONTINUOUS
10
4.49318
20
-4.54607
11
4.4877
21
-4.54973
0
LINE
8
BLACK
6
CONTINUOUS
10
4.4877
20
-4.54973
11
4.48161
21
-4.55226
0
LINE
8
BLACK
6
CONTINUOUS
10
4.48161
20
-4.55226
11
4.47515
21
-4.55354
0
LINE
8
BLACK
6
CONTINUOUS
10
4.47515
20
-4.55354
11
4.46855
21
-4.55354
0
LINE
8
BLACK
6
CONTINUOUS
10
4.46855
20
-4.55354
11
4.46209
21
-4.55226
0
LINE
8
BLACK
6
CONTINUOUS
10
4.46209
20
-4.55226
11
4.456
21
-4.54973
0
LINE
8
BLACK
6
CONTINUOUS
10
4.456
20
-4.54973
11
4.45052
21
-4.54607
0
LINE
8
BLACK
6
CONTINUOUS
10
4.45052
20
-4.54607
11
4.44586
21
-4.54141
0
LINE
8
BLACK
6
CONTINUOUS
10
4.44586
20
-4.54141
11
4.44219
21
-4.53593
0
LINE
8
BLACK
6
CONTINUOUS
10
4.44219
20
-4.53593
11
4.43967
21
-4.52984
0
LINE
8
BLACK
6
CONTINUOUS
10
4.43967
20
-4.52984
11
4.43839
21
-4.52337
0
LINE
8
BLACK
6
CONTINUOUS
10
4.43839
20
-4.52337
11
4.43839
21
-4.51678
0
LINE
8
BLACK
6
CONTINUOUS
10
4.43839
20
-4.51678
11
4.43967
21
-4.51032
0
LINE
8
BLACK
6
CONTINUOUS
10
4.43967
20
-4.51032
11
4.44219
21
-4.50423
0
LINE
8
BLACK
6
CONTINUOUS
10
4.44219
20
-4.50423
11
4.44586
21
-4.49875
0
LINE
8
BLACK
6
CONTINUOUS
10
4.44586
20
-4.49875
11
4.45052
21
-4.49409
0
LINE
8
BLACK
6
CONTINUOUS
10
4.45052
20
-4.49409
11
4.456
21
-4.49042
0
LINE
8
BLACK
6
CONTINUOUS
10
4.456
20
-4.49042
11
4.46209
21
-4.4879
0
LINE
8
BLACK
6
CONTINUOUS
10
4.46209
20
-4.4879
11
4.46855
21
-4.48661
0
LINE
8
BLACK
6
CONTINUOUS
10
4.46855
20
-4.48661
11
4.47515
21
-4.48661
0
LINE
8
BLACK
6
CONTINUOUS
10
4.47515
20
-4.48661
11
4.48161
21
-4.4879
0
LINE
8
BLACK
6
CONTINUOUS
10
5.39106
20
-4.3879
11
5.39715
21
-4.39042
0
LINE
8
BLACK
6
CONTINUOUS
10
5.39715
20
-4.39042
11
5.40263
21
-4.39409
0
LINE
8
BLACK
6
CONTINUOUS
10
5.40263
20
-4.39409
11
5.40729
21
-4.39875
0
LINE
8
BLACK
6
CONTINUOUS
10
5.40729
20
-4.39875
11
5.41096
21
-4.40423
0
LINE
8
BLACK
6
CONTINUOUS
10
5.41096
20
-4.40423
11
5.41348
21
-4.41032
0
LINE
8
BLACK
6
CONTINUOUS
10
5.41348
20
-4.41032
11
5.41476
21
-4.41678
0
LINE
8
BLACK
6
CONTINUOUS
10
5.41476
20
-4.41678
11
5.41476
21
-4.42337
0
LINE
8
BLACK
6
CONTINUOUS
10
5.41476
20
-4.42337
11
5.41348
21
-4.42984
0
LINE
8
BLACK
6
CONTINUOUS
10
5.41348
20
-4.42984
11
5.41096
21
-4.43593
0
LINE
8
BLACK
6
CONTINUOUS
10
5.41096
20
-4.43593
11
5.40729
21
-4.44141
0
LINE
8
BLACK
6
CONTINUOUS
10
5.40729
20
-4.44141
11
5.40263
21
-4.44607
0
LINE
8
BLACK
6
CONTINUOUS
10
5.40263
20
-4.44607
11
5.39715
21
-4.44973
0
LINE
8
BLACK
6
CONTINUOUS
10
5.39715
20
-4.44973
11
5.39106
21
-4.45226
0
LINE
8
BLACK
6
CONTINUOUS
10
5.39106
20
-4.45226
11
5.3846
21
-4.45354
0
LINE
8
BLACK
6
CONTINUOUS
10
5.3846
20
-4.45354
11
5.378
21
-4.45354
0
LINE
8
BLACK
6
CONTINUOUS
10
5.378
20
-4.45354
11
5.37154
21
-4.45226
0
LINE
8
BLACK
6
CONTINUOUS
10
5.37154
20
-4.45226
11
5.36545
21
-4.44973
0
LINE
8
BLACK
6
CONTINUOUS
10
5.36545
20
-4.44973
11
5.35997
21
-4.44607
0
LINE
8
BLACK
6
CONTINUOUS
10
5.35997
20
-4.44607
11
5.35531
21
-4.44141
0
LINE
8
BLACK
6
CONTINUOUS
10
5.35531
20
-4.44141
11
5.35164
21
-4.43593
0
LINE
8
BLACK
6
CONTINUOUS
10
5.35164
20
-4.43593
11
5.34912
21
-4.42984
0
LINE
8
BLACK
6
CONTINUOUS
10
5.34912
20
-4.42984
11
5.34783
21
-4.42337
0
LINE
8
BLACK
6
CONTINUOUS
10
5.34783
20
-4.42337
11
5.34783
21
-4.41678
0
LINE
8
BLACK
6
CONTINUOUS
10
5.34783
20
-4.41678
11
5.34912
21
-4.41032
0
LINE
8
BLACK
6
CONTINUOUS
10
5.34912
20
-4.41032
11
5.35164
21
-4.40423
0
LINE
8
BLACK
6
CONTINUOUS
10
5.35164
20
-4.40423
11
5.35531
21
-4.39875
0
LINE
8
BLACK
6
CONTINUOUS
10
5.35531
20
-4.39875
11
5.35997
21
-4.39409
0
LINE
8
BLACK
6
CONTINUOUS
10
5.35997
20
-4.39409
11
5.36545
21
-4.39042
0
LINE
8
BLACK
6
CONTINUOUS
10
5.36545
20
-4.39042
11
5.37154
21
-4.3879
0
LINE
8
BLACK
6
CONTINUOUS
10
5.37154
20
-4.3879
11
5.378
21
-4.38661
0
LINE
8
BLACK
6
CONTINUOUS
10
5.378
20
-4.38661
11
5.3846
21
-4.38661
0
LINE
8
BLACK
6
CONTINUOUS
10
5.3846
20
-4.38661
11
5.39106
21
-4.3879
0
LINE
8
BLACK
6
CONTINUOUS
10
4.48161
20
-4.3879
11
4.4877
21
-4.39042
0
LINE
8
BLACK
6
CONTINUOUS
10
4.4877
20
-4.39042
11
4.49318
21
-4.39409
0
LINE
8
BLACK
6
CONTINUOUS
10
4.49318
20
-4.39409
11
4.49784
21
-4.39875
0
LINE
8
BLACK
6
CONTINUOUS
10
4.49784
20
-4.39875
11
4.50151
21
-4.40423
0
LINE
8
BLACK
6
CONTINUOUS
10
4.50151
20
-4.40423
11
4.50403
21
-4.41032
0
LINE
8
BLACK
6
CONTINUOUS
10
4.50403
20
-4.41032
11
4.50531
21
-4.41678
0
LINE
8
BLACK
6
CONTINUOUS
10
4.50531
20
-4.41678
11
4.50531
21
-4.42337
0
LINE
8
BLACK
6
CONTINUOUS
10
4.50531
20
-4.42337
11
4.50403
21
-4.42984
0
LINE
8
BLACK
6
CONTINUOUS
10
4.50403
20
-4.42984
11
4.50151
21
-4.43593
0
LINE
8
BLACK
6
CONTINUOUS
10
4.50151
20
-4.43593
11
4.49784
21
-4.44141
0
LINE
8
BLACK
6
CONTINUOUS
10
4.49784
20
-4.44141
11
4.49318
21
-4.44607
0
LINE
8
BLACK
6
CONTINUOUS
10
4.49318
20
-4.44607
11
4.4877
21
-4.44973
0
LINE
8
BLACK
6
CONTINUOUS
10
4.4877
20
-4.44973
11
4.48161
21
-4.45226
0
LINE
8
BLACK
6
CONTINUOUS
10
4.48161
20
-4.45226
11
4.47515
21
-4.45354
0
LINE
8
BLACK
6
CONTINUOUS
10
4.47515
20
-4.45354
11
4.46855
21
-4.45354
0
LINE
8
BLACK
6
CONTINUOUS
10
4.46855
20
-4.45354
11
4.46209
21
-4.45226
0
LINE
8
BLACK
6
CONTINUOUS
10
4.46209
20
-4.45226
11
4.456
21
-4.44973
0
LINE
8
BLACK
6
CONTINUOUS
10
4.456
20
-4.44973
11
4.45052
21
-4.44607
0
LINE
8
BLACK
6
CONTINUOUS
10
4.45052
20
-4.44607
11
4.44586
21
-4.44141
0
LINE
8
BLACK
6
CONTINUOUS
10
4.44586
20
-4.44141
11
4.44219
21
-4.43593
0
LINE
8
BLACK
6
CONTINUOUS
10
4.44219
20
-4.43593
11
4.43967
21
-4.42984
0
LINE
8
BLACK
6
CONTINUOUS
10
4.43967
20
-4.42984
11
4.43839
21
-4.42337
0
LINE
8
BLACK
6
CONTINUOUS
10
4.43839
20
-4.42337
11
4.43839
21
-4.41678
0
LINE
8
BLACK
6
CONTINUOUS
10
4.43839
20
-4.41678
11
4.43967
21
-4.41032
0
LINE
8
BLACK
6
CONTINUOUS
10
4.43967
20
-4.41032
11
4.44219
21
-4.40423
0
LINE
8
BLACK
6
CONTINUOUS
10
4.44219
20
-4.40423
11
4.44586
21
-4.39875
0
LINE
8
BLACK
6
CONTINUOUS
10
4.44586
20
-4.39875
11
4.45052
21
-4.39409
0
LINE
8
BLACK
6
CONTINUOUS
10
4.45052
20
-4.39409
11
4.456
21
-4.39042
0
LINE
8
BLACK
6
CONTINUOUS
10
4.456
20
-4.39042
11
4.46209
21
-4.3879
0
LINE
8
BLACK
6
CONTINUOUS
10
4.46209
20
-4.3879
11
4.46855
21
-4.38661
0
LINE
8
BLACK
6
CONTINUOUS
10
4.46855
20
-4.38661
11
4.47515
21
-4.38661
0
LINE
8
BLACK
6
CONTINUOUS
10
4.47515
20
-4.38661
11
4.48161
21
-4.3879
0
LINE
8
BLACK
6
CONTINUOUS
10
5.39106
20
-4.2879
11
5.39715
21
-4.29042
0
LINE
8
BLACK
6
CONTINUOUS
10
5.39715
20
-4.29042
11
5.40263
21
-4.29409
0
LINE
8
BLACK
6
CONTINUOUS
10
5.40263
20
-4.29409
11
5.40729
21
-4.29875
0
LINE
8
BLACK
6
CONTINUOUS
10
5.40729
20
-4.29875
11
5.41096
21
-4.30423
0
LINE
8
BLACK
6
CONTINUOUS
10
5.41096
20
-4.30423
11
5.41348
21
-4.31032
0
LINE
8
BLACK
6
CONTINUOUS
10
5.41348
20
-4.31032
11
5.41476
21
-4.31678
0
LINE
8
BLACK
6
CONTINUOUS
10
5.41476
20
-4.31678
11
5.41476
21
-4.32337
0
LINE
8
BLACK
6
CONTINUOUS
10
5.41476
20
-4.32337
11
5.41348
21
-4.32984
0
LINE
8
BLACK
6
CONTINUOUS
10
5.41348
20
-4.32984
11
5.41096
21
-4.33593
0
LINE
8
BLACK
6
CONTINUOUS
10
5.41096
20
-4.33593
11
5.40729
21
-4.34141
0
LINE
8
BLACK
6
CONTINUOUS
10
5.40729
20
-4.34141
11
5.40263
21
-4.34607
0
LINE
8
BLACK
6
CONTINUOUS
10
5.40263
20
-4.34607
11
5.39715
21
-4.34973
0
LINE
8
BLACK
6
CONTINUOUS
10
5.39715
20
-4.34973
11
5.39106
21
-4.35226
0
LINE
8
BLACK
6
CONTINUOUS
10
5.39106
20
-4.35226
11
5.3846
21
-4.35354
0
LINE
8
BLACK
6
CONTINUOUS
10
5.3846
20
-4.35354
11
5.378
21
-4.35354
0
LINE
8
BLACK
6
CONTINUOUS
10
5.378
20
-4.35354
11
5.37154
21
-4.35226
0
LINE
8
BLACK
6
CONTINUOUS
10
5.37154
20
-4.35226
11
5.36545
21
-4.34973
0
LINE
8
BLACK
6
CONTINUOUS
10
5.36545
20
-4.34973
11
5.35997
21
-4.34607
0
LINE
8
BLACK
6
CONTINUOUS
10
5.35997
20
-4.34607
11
5.35531
21
-4.34141
0
LINE
8
BLACK
6
CONTINUOUS
10
5.35531
20
-4.34141
11
5.35164
21
-4.33593
0
LINE
8
BLACK
6
CONTINUOUS
10
5.35164
20
-4.33593
11
5.34912
21
-4.32984
0
LINE
8
BLACK
6
CONTINUOUS
10
5.34912
20
-4.32984
11
5.34783
21
-4.32337
0
LINE
8
BLACK
6
CONTINUOUS
10
5.34783
20
-4.32337
11
5.34783
21
-4.31678
0
LINE
8
BLACK
6
CONTINUOUS
10
5.34783
20
-4.31678
11
5.34912
21
-4.31032
0
LINE
8
BLACK
6
CONTINUOUS
10
5.34912
20
-4.31032
11
5.35164
21
-4.30423
0
LINE
8
BLACK
6
CONTINUOUS
10
5.35164
20
-4.30423
11
5.35531
21
-4.29875
0
LINE
8
BLACK
6
CONTINUOUS
10
5.35531
20
-4.29875
11
5.35997
21
-4.29409
0
LINE
8
BLACK
6
CONTINUOUS
10
5.35997
20
-4.29409
11
5.36545
21
-4.29042
0
LINE
8
BLACK
6
CONTINUOUS
10
5.36545
20
-4.29042
11
5.37154
21
-4.2879
0
LINE
8
BLACK
6
CONTINUOUS
10
5.37154
20
-4.2879
11
5.378
21
-4.28661
0
LINE
8
BLACK
6
CONTINUOUS
10
5.378
20
-4.28661
11
5.3846
21
-4.28661
0
LINE
8
BLACK
6
CONTINUOUS
10
5.3846
20
-4.28661
11
5.39106
21
-4.2879
0
LINE
8
BLACK
6
CONTINUOUS
10
4.48161
20
-4.2879
11
4.4877
21
-4.29042
0
LINE
8
BLACK
6
CONTINUOUS
10
4.4877
20
-4.29042
11
4.49318
21
-4.29409
0
LINE
8
BLACK
6
CONTINUOUS
10
4.49318
20
-4.29409
11
4.49784
21
-4.29875
0
LINE
8
BLACK
6
CONTINUOUS
10
4.49784
20
-4.29875
11
4.50151
21
-4.30423
0
LINE
8
BLACK
6
CONTINUOUS
10
4.50151
20
-4.30423
11
4.50403
21
-4.31032
0
LINE
8
BLACK
6
CONTINUOUS
10
4.50403
20
-4.31032
11
4.50531
21
-4.31678
0
LINE
8
BLACK
6
CONTINUOUS
10
4.50531
20
-4.31678
11
4.50531
21
-4.32337
0
LINE
8
BLACK
6
CONTINUOUS
10
4.50531
20
-4.32337
11
4.50403
21
-4.32984
0
LINE
8
BLACK
6
CONTINUOUS
10
4.50403
20
-4.32984
11
4.50151
21
-4.33593
0
LINE
8
BLACK
6
CONTINUOUS
10
4.50151
20
-4.33593
11
4.49784
21
-4.34141
0
LINE
8
BLACK
6
CONTINUOUS
10
4.49784
20
-4.34141
11
4.49318
21
-4.34607
0
LINE
8
BLACK
6
CONTINUOUS
10
4.49318
20
-4.34607
11
4.4877
21
-4.34973
0
LINE
8
BLACK
6
CONTINUOUS
10
4.4877
20
-4.34973
11
4.48161
21
-4.35226
0
LINE
8
BLACK
6
CONTINUOUS
10
4.48161
20
-4.35226
11
4.47515
21
-4.35354
0
LINE
8
BLACK
6
CONTINUOUS
10
4.47515
20
-4.35354
11
4.46855
21
-4.35354
0
LINE
8
BLACK
6
CONTINUOUS
10
4.46855
20
-4.35354
11
4.46209
21
-4.35226
0
LINE
8
BLACK
6
CONTINUOUS
10
4.46209
20
-4.35226
11
4.456
21
-4.34973
0
LINE
8
BLACK
6
CONTINUOUS
10
4.456
20
-4.34973
11
4.45052
21
-4.34607
0
LINE
8
BLACK
6
CONTINUOUS
10
4.45052
20
-4.34607
11
4.44586
21
-4.34141
0
LINE
8
BLACK
6
CONTINUOUS
10
4.44586
20
-4.34141
11
4.44219
21
-4.33593
0
LINE
8
BLACK
6
CONTINUOUS
10
4.44219
20
-4.33593
11
4.43967
21
-4.32984
0
LINE
8
BLACK
6
CONTINUOUS
10
4.43967
20
-4.32984
11
4.43839
21
-4.32337
0
LINE
8
BLACK
6
CONTINUOUS
10
4.43839
20
-4.32337
11
4.43839
21
-4.31678
0
LINE
8
BLACK
6
CONTINUOUS
10
4.43839
20
-4.31678
11
4.43967
21
-4.31032
0
LINE
8
BLACK
6
CONTINUOUS
10
4.43967
20
-4.31032
11
4.44219
21
-4.30423
0
LINE
8
BLACK
6
CONTINUOUS
10
4.44219
20
-4.30423
11
4.44586
21
-4.29875
0
LINE
8
BLACK
6
CONTINUOUS
10
4.44586
20
-4.29875
11
4.45052
21
-4.29409
0
LINE
8
BLACK
6
CONTINUOUS
10
4.45052
20
-4.29409
11
4.456
21
-4.29042
0
LINE
8
BLACK
6
CONTINUOUS
10
4.456
20
-4.29042
11
4.46209
21
-4.2879
0
LINE
8
BLACK
6
CONTINUOUS
10
4.46209
20
-4.2879
11
4.46855
21
-4.28661
0
LINE
8
BLACK
6
CONTINUOUS
10
4.46855
20
-4.28661
11
4.47515
21
-4.28661
0
LINE
8
BLACK
6
CONTINUOUS
10
4.47515
20
-4.28661
11
4.48161
21
-4.2879
0
LINE
8
BLACK
6
CONTINUOUS
10
4.48161
20
-4.1879
11
4.4877
21
-4.19042
0
LINE
8
BLACK
6
CONTINUOUS
10
4.4877
20
-4.19042
11
4.49318
21
-4.19409
0
LINE
8
BLACK
6
CONTINUOUS
10
4.49318
20
-4.19409
11
4.49784
21
-4.19875
0
LINE
8
BLACK
6
CONTINUOUS
10
4.49784
20
-4.19875
11
4.50151
21
-4.20423
0
LINE
8
BLACK
6
CONTINUOUS
10
4.50151
20
-4.20423
11
4.50403
21
-4.21032
0
LINE
8
BLACK
6
CONTINUOUS
10
4.50403
20
-4.21032
11
4.50531
21
-4.21678
0
LINE
8
BLACK
6
CONTINUOUS
10
4.50531
20
-4.21678
11
4.50531
21
-4.22337
0
LINE
8
BLACK
6
CONTINUOUS
10
4.50531
20
-4.22337
11
4.50403
21
-4.22984
0
LINE
8
BLACK
6
CONTINUOUS
10
4.50403
20
-4.22984
11
4.50151
21
-4.23593
0
LINE
8
BLACK
6
CONTINUOUS
10
4.50151
20
-4.23593
11
4.49784
21
-4.24141
0
LINE
8
BLACK
6
CONTINUOUS
10
4.49784
20
-4.24141
11
4.49318
21
-4.24607
0
LINE
8
BLACK
6
CONTINUOUS
10
4.49318
20
-4.24607
11
4.4877
21
-4.24973
0
LINE
8
BLACK
6
CONTINUOUS
10
4.4877
20
-4.24973
11
4.48161
21
-4.25226
0
LINE
8
BLACK
6
CONTINUOUS
10
4.48161
20
-4.25226
11
4.47515
21
-4.25354
0
LINE
8
BLACK
6
CONTINUOUS
10
4.47515
20
-4.25354
11
4.46855
21
-4.25354
0
LINE
8
BLACK
6
CONTINUOUS
10
4.46855
20
-4.25354
11
4.46209
21
-4.25226
0
LINE
8
BLACK
6
CONTINUOUS
10
4.46209
20
-4.25226
11
4.456
21
-4.24973
0
LINE
8
BLACK
6
CONTINUOUS
10
4.456
20
-4.24973
11
4.45052
21
-4.24607
0
LINE
8
BLACK
6
CONTINUOUS
10
4.45052
20
-4.24607
11
4.44586
21
-4.24141
0
LINE
8
BLACK
6
CONTINUOUS
10
4.44586
20
-4.24141
11
4.44219
21
-4.23593
0
LINE
8
BLACK
6
CONTINUOUS
10
4.44219
20
-4.23593
11
4.43967
21
-4.22984
0
LINE
8
BLACK
6
CONTINUOUS
10
4.43967
20
-4.22984
11
4.43839
21
-4.22337
0
LINE
8
BLACK
6
CONTINUOUS
10
4.43839
20
-4.22337
11
4.43839
21
-4.21678
0
LINE
8
BLACK
6
CONTINUOUS
10
4.43839
20
-4.21678
11
4.43967
21
-4.21032
0
LINE
8
BLACK
6
CONTINUOUS
10
4.43967
20
-4.21032
11
4.44219
21
-4.20423
0
LINE
8
BLACK
6
CONTINUOUS
10
4.44219
20
-4.20423
11
4.44586
21
-4.19875
0
LINE
8
BLACK
6
CONTINUOUS
10
4.44586
20
-4.19875
11
4.45052
21
-4.19409
0
LINE
8
BLACK
6
CONTINUOUS
10
4.45052
20
-4.19409
11
4.456
21
-4.19042
0
LINE
8
BLACK
6
CONTINUOUS
10
4.456
20
-4.19042
11
4.46209
21
-4.1879
0
LINE
8
BLACK
6
CONTINUOUS
10
4.46209
20
-4.1879
11
4.46855
21
-4.18661
0
LINE
8
BLACK
6
CONTINUOUS
10
4.46855
20
-4.18661
11
4.47515
21
-4.18661
0
LINE
8
BLACK
6
CONTINUOUS
10
4.47515
20
-4.18661
11
4.48161
21
-4.1879
0
LINE
8
BLACK
6
CONTINUOUS
10
5.39106
20
-4.1879
11
5.39715
21
-4.19042
0
LINE
8
BLACK
6
CONTINUOUS
10
5.39715
20
-4.19042
11
5.40263
21
-4.19409
0
LINE
8
BLACK
6
CONTINUOUS
10
5.40263
20
-4.19409
11
5.40729
21
-4.19875
0
LINE
8
BLACK
6
CONTINUOUS
10
5.40729
20
-4.19875
11
5.41096
21
-4.20423
0
LINE
8
BLACK
6
CONTINUOUS
10
5.41096
20
-4.20423
11
5.41348
21
-4.21032
0
LINE
8
BLACK
6
CONTINUOUS
10
5.41348
20
-4.21032
11
5.41476
21
-4.21678
0
LINE
8
BLACK
6
CONTINUOUS
10
5.41476
20
-4.21678
11
5.41476
21
-4.22337
0
LINE
8
BLACK
6
CONTINUOUS
10
5.41476
20
-4.22337
11
5.41348
21
-4.22984
0
LINE
8
BLACK
6
CONTINUOUS
10
5.41348
20
-4.22984
11
5.41096
21
-4.23593
0
LINE
8
BLACK
6
CONTINUOUS
10
5.41096
20
-4.23593
11
5.40729
21
-4.24141
0
LINE
8
BLACK
6
CONTINUOUS
10
5.40729
20
-4.24141
11
5.40263
21
-4.24607
0
LINE
8
BLACK
6
CONTINUOUS
10
5.40263
20
-4.24607
11
5.39715
21
-4.24973
0
LINE
8
BLACK
6
CONTINUOUS
10
5.39715
20
-4.24973
11
5.39106
21
-4.25226
0
LINE
8
BLACK
6
CONTINUOUS
10
5.39106
20
-4.25226
11
5.3846
21
-4.25354
0
LINE
8
BLACK
6
CONTINUOUS
10
5.3846
20
-4.25354
11
5.378
21
-4.25354
0
LINE
8
BLACK
6
CONTINUOUS
10
5.378
20
-4.25354
11
5.37154
21
-4.25226
0
LINE
8
BLACK
6
CONTINUOUS
10
5.37154
20
-4.25226
11
5.36545
21
-4.24973
0
LINE
8
BLACK
6
CONTINUOUS
10
5.36545
20
-4.24973
11
5.35997
21
-4.24607
0
LINE
8
BLACK
6
CONTINUOUS
10
5.35997
20
-4.24607
11
5.35531
21
-4.24141
0
LINE
8
BLACK
6
CONTINUOUS
10
5.35531
20
-4.24141
11
5.35164
21
-4.23593
0
LINE
8
BLACK
6
CONTINUOUS
10
5.35164
20
-4.23593
11
5.34912
21
-4.22984
0
LINE
8
BLACK
6
CONTINUOUS
10
5.34912
20
-4.22984
11
5.34783
21
-4.22337
0
LINE
8
BLACK
6
CONTINUOUS
10
5.34783
20
-4.22337
11
5.34783
21
-4.21678
0
LINE
8
BLACK
6
CONTINUOUS
10
5.34783
20
-4.21678
11
5.34912
21
-4.21032
0
LINE
8
BLACK
6
CONTINUOUS
10
5.34912
20
-4.21032
11
5.35164
21
-4.20423
0
LINE
8
BLACK
6
CONTINUOUS
10
5.35164
20
-4.20423
11
5.35531
21
-4.19875
0
LINE
8
BLACK
6
CONTINUOUS
10
5.35531
20
-4.19875
11
5.35997
21
-4.19409
0
LINE
8
BLACK
6
CONTINUOUS
10
5.35997
20
-4.19409
11
5.36545
21
-4.19042
0
LINE
8
BLACK
6
CONTINUOUS
10
5.36545
20
-4.19042
11
5.37154
21
-4.1879
0
LINE
8
BLACK
6
CONTINUOUS
10
5.37154
20
-4.1879
11
5.378
21
-4.18661
0
LINE
8
BLACK
6
CONTINUOUS
10
5.378
20
-4.18661
11
5.3846
21
-4.18661
0
LINE
8
BLACK
6
CONTINUOUS
10
5.3846
20
-4.18661
11
5.39106
21
-4.1879
0
LINE
8
BLACK
6
CONTINUOUS
10
4.48161
20
-4.0879
11
4.4877
21
-4.09042
0
LINE
8
BLACK
6
CONTINUOUS
10
4.4877
20
-4.09042
11
4.49318
21
-4.09409
0
LINE
8
BLACK
6
CONTINUOUS
10
4.49318
20
-4.09409
11
4.49784
21
-4.09875
0
LINE
8
BLACK
6
CONTINUOUS
10
4.49784
20
-4.09875
11
4.50151
21
-4.10423
0
LINE
8
BLACK
6
CONTINUOUS
10
4.50151
20
-4.10423
11
4.50403
21
-4.11032
0
LINE
8
BLACK
6
CONTINUOUS
10
4.50403
20
-4.11032
11
4.50531
21
-4.11678
0
LINE
8
BLACK
6
CONTINUOUS
10
4.50531
20
-4.11678
11
4.50531
21
-4.12337
0
LINE
8
BLACK
6
CONTINUOUS
10
4.50531
20
-4.12337
11
4.50403
21
-4.12984
0
LINE
8
BLACK
6
CONTINUOUS
10
4.50403
20
-4.12984
11
4.50151
21
-4.13593
0
LINE
8
BLACK
6
CONTINUOUS
10
4.50151
20
-4.13593
11
4.49784
21
-4.14141
0
LINE
8
BLACK
6
CONTINUOUS
10
4.49784
20
-4.14141
11
4.49318
21
-4.14607
0
LINE
8
BLACK
6
CONTINUOUS
10
4.49318
20
-4.14607
11
4.4877
21
-4.14973
0
LINE
8
BLACK
6
CONTINUOUS
10
4.4877
20
-4.14973
11
4.48161
21
-4.15226
0
LINE
8
BLACK
6
CONTINUOUS
10
4.48161
20
-4.15226
11
4.47515
21
-4.15354
0
LINE
8
BLACK
6
CONTINUOUS
10
4.47515
20
-4.15354
11
4.46855
21
-4.15354
0
LINE
8
BLACK
6
CONTINUOUS
10
4.46855
20
-4.15354
11
4.46209
21
-4.15226
0
LINE
8
BLACK
6
CONTINUOUS
10
4.46209
20
-4.15226
11
4.456
21
-4.14973
0
LINE
8
BLACK
6
CONTINUOUS
10
4.456
20
-4.14973
11
4.45052
21
-4.14607
0
LINE
8
BLACK
6
CONTINUOUS
10
4.45052
20
-4.14607
11
4.44586
21
-4.14141
0
LINE
8
BLACK
6
CONTINUOUS
10
4.44586
20
-4.14141
11
4.44219
21
-4.13593
0
LINE
8
BLACK
6
CONTINUOUS
10
4.44219
20
-4.13593
11
4.43967
21
-4.12984
0
LINE
8
BLACK
6
CONTINUOUS
10
4.43967
20
-4.12984
11
4.43839
21
-4.12337
0
LINE
8
BLACK
6
CONTINUOUS
10
4.43839
20
-4.12337
11
4.43839
21
-4.11678
0
LINE
8
BLACK
6
CONTINUOUS
10
4.43839
20
-4.11678
11
4.43967
21
-4.11032
0
LINE
8
BLACK
6
CONTINUOUS
10
4.43967
20
-4.11032
11
4.44219
21
-4.10423
0
LINE
8
BLACK
6
CONTINUOUS
10
4.44219
20
-4.10423
11
4.44586
21
-4.09875
0
LINE
8
BLACK
6
CONTINUOUS
10
4.44586
20
-4.09875
11
4.45052
21
-4.09409
0
LINE
8
BLACK
6
CONTINUOUS
10
4.45052
20
-4.09409
11
4.456
21
-4.09042
0
LINE
8
BLACK
6
CONTINUOUS
10
4.456
20
-4.09042
11
4.46209
21
-4.0879
0
LINE
8
BLACK
6
CONTINUOUS
10
4.46209
20
-4.0879
11
4.46855
21
-4.08661
0
LINE
8
BLACK
6
CONTINUOUS
10
4.46855
20
-4.08661
11
4.47515
21
-4.08661
0
LINE
8
BLACK
6
CONTINUOUS
10
4.47515
20
-4.08661
11
4.48161
21
-4.0879
0
LINE
8
BLACK
6
CONTINUOUS
10
5.39106
20
-4.0879
11
5.39715
21
-4.09042
0
LINE
8
BLACK
6
CONTINUOUS
10
5.39715
20
-4.09042
11
5.40263
21
-4.09409
0
LINE
8
BLACK
6
CONTINUOUS
10
5.40263
20
-4.09409
11
5.40729
21
-4.09875
0
LINE
8
BLACK
6
CONTINUOUS
10
5.40729
20
-4.09875
11
5.41096
21
-4.10423
0
LINE
8
BLACK
6
CONTINUOUS
10
5.41096
20
-4.10423
11
5.41348
21
-4.11032
0
LINE
8
BLACK
6
CONTINUOUS
10
5.41348
20
-4.11032
11
5.41476
21
-4.11678
0
LINE
8
BLACK
6
CONTINUOUS
10
5.41476
20
-4.11678
11
5.41476
21
-4.12337
0
LINE
8
BLACK
6
CONTINUOUS
10
5.41476
20
-4.12337
11
5.41348
21
-4.12984
0
LINE
8
BLACK
6
CONTINUOUS
10
5.41348
20
-4.12984
11
5.41096
21
-4.13593
0
LINE
8
BLACK
6
CONTINUOUS
10
5.41096
20
-4.13593
11
5.40729
21
-4.14141
0
LINE
8
BLACK
6
CONTINUOUS
10
5.40729
20
-4.14141
11
5.40263
21
-4.14607
0
LINE
8
BLACK
6
CONTINUOUS
10
5.40263
20
-4.14607
11
5.39715
21
-4.14973
0
LINE
8
BLACK
6
CONTINUOUS
10
5.39715
20
-4.14973
11
5.39106
21
-4.15226
0
LINE
8
BLACK
6
CONTINUOUS
10
5.39106
20
-4.15226
11
5.3846
21
-4.15354
0
LINE
8
BLACK
6
CONTINUOUS
10
5.3846
20
-4.15354
11
5.378
21
-4.15354
0
LINE
8
BLACK
6
CONTINUOUS
10
5.378
20
-4.15354
11
5.37154
21
-4.15226
0
LINE
8
BLACK
6
CONTINUOUS
10
5.37154
20
-4.15226
11
5.36545
21
-4.14973
0
LINE
8
BLACK
6
CONTINUOUS
10
5.36545
20
-4.14973
11
5.35997
21
-4.14607
0
LINE
8
BLACK
6
CONTINUOUS
10
5.35997
20
-4.14607
11
5.35531
21
-4.14141
0
LINE
8
BLACK
6
CONTINUOUS
10
5.35531
20
-4.14141
11
5.35164
21
-4.13593
0
LINE
8
BLACK
6
CONTINUOUS
10
5.35164
20
-4.13593
11
5.34912
21
-4.12984
0
LINE
8
BLACK
6
CONTINUOUS
10
5.34912
20
-4.12984
11
5.34783
21
-4.12337
0
LINE
8
BLACK
6
CONTINUOUS
10
5.34783
20
-4.12337
11
5.34783
21
-4.11678
0
LINE
8
BLACK
6
CONTINUOUS
10
5.34783
20
-4.11678
11
5.34912
21
-4.11032
0
LINE
8
BLACK
6
CONTINUOUS
10
5.34912
20
-4.11032
11
5.35164
21
-4.10423
0
LINE
8
BLACK
6
CONTINUOUS
10
5.35164
20
-4.10423
11
5.35531
21
-4.09875
0
LINE
8
BLACK
6
CONTINUOUS
10
5.35531
20
-4.09875
11
5.35997
21
-4.09409
0
LINE
8
BLACK
6
CONTINUOUS
10
5.35997
20
-4.09409
11
5.36545
21
-4.09042
0
LINE
8
BLACK
6
CONTINUOUS
10
5.36545
20
-4.09042
11
5.37154
21
-4.0879
0
LINE
8
BLACK
6
CONTINUOUS
10
5.37154
20
-4.0879
11
5.378
21
-4.08661
0
LINE
8
BLACK
6
CONTINUOUS
10
5.378
20
-4.08661
11
5.3846
21
-4.08661
0
LINE
8
BLACK
6
CONTINUOUS
10
5.3846
20
-4.08661
11
5.39106
21
-4.0879
0
LINE
8
BLACK
6
CONTINUOUS
10
4.48161
20
-3.9879
11
4.4877
21
-3.99042
0
LINE
8
BLACK
6
CONTINUOUS
10
4.4877
20
-3.99042
11
4.49318
21
-3.99409
0
LINE
8
BLACK
6
CONTINUOUS
10
4.49318
20
-3.99409
11
4.49784
21
-3.99875
0
LINE
8
BLACK
6
CONTINUOUS
10
4.49784
20
-3.99875
11
4.50151
21
-4.00423
0
LINE
8
BLACK
6
CONTINUOUS
10
4.50151
20
-4.00423
11
4.50403
21
-4.01032
0
LINE
8
BLACK
6
CONTINUOUS
10
4.50403
20
-4.01032
11
4.50531
21
-4.01678
0
LINE
8
BLACK
6
CONTINUOUS
10
4.50531
20
-4.01678
11
4.50531
21
-4.02337
0
LINE
8
BLACK
6
CONTINUOUS
10
4.50531
20
-4.02337
11
4.50403
21
-4.02984
0
LINE
8
BLACK
6
CONTINUOUS
10
4.50403
20
-4.02984
11
4.50151
21
-4.03593
0
LINE
8
BLACK
6
CONTINUOUS
10
4.50151
20
-4.03593
11
4.49784
21
-4.04141
0
LINE
8
BLACK
6
CONTINUOUS
10
4.49784
20
-4.04141
11
4.49318
21
-4.04607
0
LINE
8
BLACK
6
CONTINUOUS
10
4.49318
20
-4.04607
11
4.4877
21
-4.04973
0
LINE
8
BLACK
6
CONTINUOUS
10
4.4877
20
-4.04973
11
4.48161
21
-4.05226
0
LINE
8
BLACK
6
CONTINUOUS
10
4.48161
20
-4.05226
11
4.47515
21
-4.05354
0
LINE
8
BLACK
6
CONTINUOUS
10
4.47515
20
-4.05354
11
4.46855
21
-4.05354
0
LINE
8
BLACK
6
CONTINUOUS
10
4.46855
20
-4.05354
11
4.46209
21
-4.05226
0
LINE
8
BLACK
6
CONTINUOUS
10
4.46209
20
-4.05226
11
4.456
21
-4.04973
0
LINE
8
BLACK
6
CONTINUOUS
10
4.456
20
-4.04973
11
4.45052
21
-4.04607
0
LINE
8
BLACK
6
CONTINUOUS
10
4.45052
20
-4.04607
11
4.44586
21
-4.04141
0
LINE
8
BLACK
6
CONTINUOUS
10
4.44586
20
-4.04141
11
4.44219
21
-4.03593
0
LINE
8
BLACK
6
CONTINUOUS
10
4.44219
20
-4.03593
11
4.43967
21
-4.02984
0
LINE
8
BLACK
6
CONTINUOUS
10
4.43967
20
-4.02984
11
4.43839
21
-4.02337
0
LINE
8
BLACK
6
CONTINUOUS
10
4.43839
20
-4.02337
11
4.43839
21
-4.01678
0
LINE
8
BLACK
6
CONTINUOUS
10
4.43839
20
-4.01678
11
4.43967
21
-4.01032
0
LINE
8
BLACK
6
CONTINUOUS
10
4.43967
20
-4.01032
11
4.44219
21
-4.00423
0
LINE
8
BLACK
6
CONTINUOUS
10
4.44219
20
-4.00423
11
4.44586
21
-3.99875
0
LINE
8
BLACK
6
CONTINUOUS
10
4.44586
20
-3.99875
11
4.45052
21
-3.99409
0
LINE
8
BLACK
6
CONTINUOUS
10
4.45052
20
-3.99409
11
4.456
21
-3.99042
0
LINE
8
BLACK
6
CONTINUOUS
10
4.456
20
-3.99042
11
4.46209
21
-3.9879
0
LINE
8
BLACK
6
CONTINUOUS
10
4.46209
20
-3.9879
11
4.46855
21
-3.98661
0
LINE
8
BLACK
6
CONTINUOUS
10
4.46855
20
-3.98661
11
4.47515
21
-3.98661
0
LINE
8
BLACK
6
CONTINUOUS
10
4.47515
20
-3.98661
11
4.48161
21
-3.9879
0
LINE
8
BLACK
6
CONTINUOUS
10
4.48161
20
-3.8879
11
4.4877
21
-3.89042
0
LINE
8
BLACK
6
CONTINUOUS
10
4.4877
20
-3.89042
11
4.49318
21
-3.89409
0
LINE
8
BLACK
6
CONTINUOUS
10
4.49318
20
-3.89409
11
4.49784
21
-3.89875
0
LINE
8
BLACK
6
CONTINUOUS
10
4.49784
20
-3.89875
11
4.50151
21
-3.90423
0
LINE
8
BLACK
6
CONTINUOUS
10
4.50151
20
-3.90423
11
4.50403
21
-3.91032
0
LINE
8
BLACK
6
CONTINUOUS
10
4.50403
20
-3.91032
11
4.50531
21
-3.91678
0
LINE
8
BLACK
6
CONTINUOUS
10
4.50531
20
-3.91678
11
4.50531
21
-3.92337
0
LINE
8
BLACK
6
CONTINUOUS
10
4.50531
20
-3.92337
11
4.50403
21
-3.92984
0
LINE
8
BLACK
6
CONTINUOUS
10
4.50403
20
-3.92984
11
4.50151
21
-3.93593
0
LINE
8
BLACK
6
CONTINUOUS
10
4.50151
20
-3.93593
11
4.49784
21
-3.94141
0
LINE
8
BLACK
6
CONTINUOUS
10
4.49784
20
-3.94141
11
4.49318
21
-3.94607
0
LINE
8
BLACK
6
CONTINUOUS
10
4.49318
20
-3.94607
11
4.4877
21
-3.94973
0
LINE
8
BLACK
6
CONTINUOUS
10
4.4877
20
-3.94973
11
4.48161
21
-3.95226
0
LINE
8
BLACK
6
CONTINUOUS
10
4.48161
20
-3.95226
11
4.47515
21
-3.95354
0
LINE
8
BLACK
6
CONTINUOUS
10
4.47515
20
-3.95354
11
4.46855
21
-3.95354
0
LINE
8
BLACK
6
CONTINUOUS
10
4.46855
20
-3.95354
11
4.46209
21
-3.95226
0
LINE
8
BLACK
6
CONTINUOUS
10
4.46209
20
-3.95226
11
4.456
21
-3.94973
0
LINE
8
BLACK
6
CONTINUOUS
10
4.456
20
-3.94973
11
4.45052
21
-3.94607
0
LINE
8
BLACK
6
CONTINUOUS
10
4.45052
20
-3.94607
11
4.44586
21
-3.94141
0
LINE
8
BLACK
6
CONTINUOUS
10
4.44586
20
-3.94141
11
4.44219
21
-3.93593
0
LINE
8
BLACK
6
CONTINUOUS
10
4.44219
20
-3.93593
11
4.43967
21
-3.92984
0
LINE
8
BLACK
6
CONTINUOUS
10
4.43967
20
-3.92984
11
4.43839
21
-3.92337
0
LINE
8
BLACK
6
CONTINUOUS
10
4.43839
20
-3.92337
11
4.43839
21
-3.91678
0
LINE
8
BLACK
6
CONTINUOUS
10
4.43839
20
-3.91678
11
4.43967
21
-3.91032
0
LINE
8
BLACK
6
CONTINUOUS
10
4.43967
20
-3.91032
11
4.44219
21
-3.90423
0
LINE
8
BLACK
6
CONTINUOUS
10
4.44219
20
-3.90423
11
4.44586
21
-3.89875
0
LINE
8
BLACK
6
CONTINUOUS
10
4.44586
20
-3.89875
11
4.45052
21
-3.89409
0
LINE
8
BLACK
6
CONTINUOUS
10
4.45052
20
-3.89409
11
4.456
21
-3.89042
0
LINE
8
BLACK
6
CONTINUOUS
10
4.456
20
-3.89042
11
4.46209
21
-3.8879
0
LINE
8
BLACK
6
CONTINUOUS
10
4.46209
20
-3.8879
11
4.46855
21
-3.88661
0
LINE
8
BLACK
6
CONTINUOUS
10
4.46855
20
-3.88661
11
4.47515
21
-3.88661
0
LINE
8
BLACK
6
CONTINUOUS
10
4.47515
20
-3.88661
11
4.48161
21
-3.8879
0
LINE
8
BLACK
6
CONTINUOUS
10
5.39106
20
-3.8879
11
5.39715
21
-3.89042
0
LINE
8
BLACK
6
CONTINUOUS
10
5.39715
20
-3.89042
11
5.40263
21
-3.89409
0
LINE
8
BLACK
6
CONTINUOUS
10
5.40263
20
-3.89409
11
5.40729
21
-3.89875
0
LINE
8
BLACK
6
CONTINUOUS
10
5.40729
20
-3.89875
11
5.41096
21
-3.90423
0
LINE
8
BLACK
6
CONTINUOUS
10
5.41096
20
-3.90423
11
5.41348
21
-3.91032
0
LINE
8
BLACK
6
CONTINUOUS
10
5.41348
20
-3.91032
11
5.41476
21
-3.91678
0
LINE
8
BLACK
6
CONTINUOUS
10
5.41476
20
-3.91678
11
5.41476
21
-3.92337
0
LINE
8
BLACK
6
CONTINUOUS
10
5.41476
20
-3.92337
11
5.41348
21
-3.92984
0
LINE
8
BLACK
6
CONTINUOUS
10
5.41348
20
-3.92984
11
5.41096
21
-3.93593
0
LINE
8
BLACK
6
CONTINUOUS
10
5.41096
20
-3.93593
11
5.40729
21
-3.94141
0
LINE
8
BLACK
6
CONTINUOUS
10
5.40729
20
-3.94141
11
5.40263
21
-3.94607
0
LINE
8
BLACK
6
CONTINUOUS
10
5.40263
20
-3.94607
11
5.39715
21
-3.94973
0
LINE
8
BLACK
6
CONTINUOUS
10
5.39715
20
-3.94973
11
5.39106
21
-3.95226
0
LINE
8
BLACK
6
CONTINUOUS
10
5.39106
20
-3.95226
11
5.3846
21
-3.95354
0
LINE
8
BLACK
6
CONTINUOUS
10
5.3846
20
-3.95354
11
5.378
21
-3.95354
0
LINE
8
BLACK
6
CONTINUOUS
10
5.378
20
-3.95354
11
5.37154
21
-3.95226
0
LINE
8
BLACK
6
CONTINUOUS
10
5.37154
20
-3.95226
11
5.36545
21
-3.94973
0
LINE
8
BLACK
6
CONTINUOUS
10
5.36545
20
-3.94973
11
5.35997
21
-3.94607
0
LINE
8
BLACK
6
CONTINUOUS
10
5.35997
20
-3.94607
11
5.35531
21
-3.94141
0
LINE
8
BLACK
6
CONTINUOUS
10
5.35531
20
-3.94141
11
5.35164
21
-3.93593
0
LINE
8
BLACK
6
CONTINUOUS
10
5.35164
20
-3.93593
11
5.34912
21
-3.92984
0
LINE
8
BLACK
6
CONTINUOUS
10
5.34912
20
-3.92984
11
5.34783
21
-3.92337
0
LINE
8
BLACK
6
CONTINUOUS
10
5.34783
20
-3.92337
11
5.34783
21
-3.91678
0
LINE
8
BLACK
6
CONTINUOUS
10
5.34783
20
-3.91678
11
5.34912
21
-3.91032
0
LINE
8
BLACK
6
CONTINUOUS
10
5.34912
20
-3.91032
11
5.35164
21
-3.90423
0
LINE
8
BLACK
6
CONTINUOUS
10
5.35164
20
-3.90423
11
5.35531
21
-3.89875
0
LINE
8
BLACK
6
CONTINUOUS
10
5.35531
20
-3.89875
11
5.35997
21
-3.89409
0
LINE
8
BLACK
6
CONTINUOUS
10
5.35997
20
-3.89409
11
5.36545
21
-3.89042
0
LINE
8
BLACK
6
CONTINUOUS
10
5.36545
20
-3.89042
11
5.37154
21
-3.8879
0
LINE
8
BLACK
6
CONTINUOUS
10
5.37154
20
-3.8879
11
5.378
21
-3.88661
0
LINE
8
BLACK
6
CONTINUOUS
10
5.378
20
-3.88661
11
5.3846
21
-3.88661
0
LINE
8
BLACK
6
CONTINUOUS
10
5.3846
20
-3.88661
11
5.39106
21
-3.8879
0
LINE
8
BLACK
6
CONTINUOUS
10
4.48161
20
-3.7879
11
4.4877
21
-3.79042
0
LINE
8
BLACK
6
CONTINUOUS
10
4.4877
20
-3.79042
11
4.49318
21
-3.79409
0
LINE
8
BLACK
6
CONTINUOUS
10
4.49318
20
-3.79409
11
4.49784
21
-3.79875
0
LINE
8
BLACK
6
CONTINUOUS
10
4.49784
20
-3.79875
11
4.50151
21
-3.80423
0
LINE
8
BLACK
6
CONTINUOUS
10
4.50151
20
-3.80423
11
4.50403
21
-3.81032
0
LINE
8
BLACK
6
CONTINUOUS
10
4.50403
20
-3.81032
11
4.50531
21
-3.81678
0
LINE
8
BLACK
6
CONTINUOUS
10
4.50531
20
-3.81678
11
4.50531
21
-3.82337
0
LINE
8
BLACK
6
CONTINUOUS
10
4.50531
20
-3.82337
11
4.50403
21
-3.82984
0
LINE
8
BLACK
6
CONTINUOUS
10
4.50403
20
-3.82984
11
4.50151
21
-3.83593
0
LINE
8
BLACK
6
CONTINUOUS
10
4.50151
20
-3.83593
11
4.49784
21
-3.84141
0
LINE
8
BLACK
6
CONTINUOUS
10
4.49784
20
-3.84141
11
4.49318
21
-3.84607
0
LINE
8
BLACK
6
CONTINUOUS
10
4.49318
20
-3.84607
11
4.4877
21
-3.84973
0
LINE
8
BLACK
6
CONTINUOUS
10
4.4877
20
-3.84973
11
4.48161
21
-3.85226
0
LINE
8
BLACK
6
CONTINUOUS
10
4.48161
20
-3.85226
11
4.47515
21
-3.85354
0
LINE
8
BLACK
6
CONTINUOUS
10
4.47515
20
-3.85354
11
4.46855
21
-3.85354
0
LINE
8
BLACK
6
CONTINUOUS
10
4.46855
20
-3.85354
11
4.46209
21
-3.85226
0
LINE
8
BLACK
6
CONTINUOUS
10
4.46209
20
-3.85226
11
4.456
21
-3.84973
0
LINE
8
BLACK
6
CONTINUOUS
10
4.456
20
-3.84973
11
4.45052
21
-3.84607
0
LINE
8
BLACK
6
CONTINUOUS
10
4.45052
20
-3.84607
11
4.44586
21
-3.84141
0
LINE
8
BLACK
6
CONTINUOUS
10
4.44586
20
-3.84141
11
4.44219
21
-3.83593
0
LINE
8
BLACK
6
CONTINUOUS
10
4.44219
20
-3.83593
11
4.43967
21
-3.82984
0
LINE
8
BLACK
6
CONTINUOUS
10
4.43967
20
-3.82984
11
4.43839
21
-3.82337
0
LINE
8
BLACK
6
CONTINUOUS
10
4.43839
20
-3.82337
11
4.43839
21
-3.81678
0
LINE
8
BLACK
6
CONTINUOUS
10
4.43839
20
-3.81678
11
4.43967
21
-3.81032
0
LINE
8
BLACK
6
CONTINUOUS
10
4.43967
20
-3.81032
11
4.44219
21
-3.80423
0
LINE
8
BLACK
6
CONTINUOUS
10
4.44219
20
-3.80423
11
4.44586
21
-3.79875
0
LINE
8
BLACK
6
CONTINUOUS
10
4.44586
20
-3.79875
11
4.45052
21
-3.79409
0
LINE
8
BLACK
6
CONTINUOUS
10
4.45052
20
-3.79409
11
4.456
21
-3.79042
0
LINE
8
BLACK
6
CONTINUOUS
10
4.456
20
-3.79042
11
4.46209
21
-3.7879
0
LINE
8
BLACK
6
CONTINUOUS
10
4.46209
20
-3.7879
11
4.46855
21
-3.78661
0
LINE
8
BLACK
6
CONTINUOUS
10
4.46855
20
-3.78661
11
4.47515
21
-3.78661
0
LINE
8
BLACK
6
CONTINUOUS
10
4.47515
20
-3.78661
11
4.48161
21
-3.7879
0
LINE
8
BLACK
6
CONTINUOUS
10
5.39106
20
-3.7879
11
5.39715
21
-3.79042
0
LINE
8
BLACK
6
CONTINUOUS
10
5.39715
20
-3.79042
11
5.40263
21
-3.79409
0
LINE
8
BLACK
6
CONTINUOUS
10
5.40263
20
-3.79409
11
5.40729
21
-3.79875
0
LINE
8
BLACK
6
CONTINUOUS
10
5.40729
20
-3.79875
11
5.41096
21
-3.80423
0
LINE
8
BLACK
6
CONTINUOUS
10
5.41096
20
-3.80423
11
5.41348
21
-3.81032
0
LINE
8
BLACK
6
CONTINUOUS
10
5.41348
20
-3.81032
11
5.41476
21
-3.81678
0
LINE
8
BLACK
6
CONTINUOUS
10
5.41476
20
-3.81678
11
5.41476
21
-3.82337
0
LINE
8
BLACK
6
CONTINUOUS
10
5.41476
20
-3.82337
11
5.41348
21
-3.82984
0
LINE
8
BLACK
6
CONTINUOUS
10
5.41348
20
-3.82984
11
5.41096
21
-3.83593
0
LINE
8
BLACK
6
CONTINUOUS
10
5.41096
20
-3.83593
11
5.40729
21
-3.84141
0
LINE
8
BLACK
6
CONTINUOUS
10
5.40729
20
-3.84141
11
5.40263
21
-3.84607
0
LINE
8
BLACK
6
CONTINUOUS
10
5.40263
20
-3.84607
11
5.39715
21
-3.84973
0
LINE
8
BLACK
6
CONTINUOUS
10
5.39715
20
-3.84973
11
5.39106
21
-3.85226
0
LINE
8
BLACK
6
CONTINUOUS
10
5.39106
20
-3.85226
11
5.3846
21
-3.85354
0
LINE
8
BLACK
6
CONTINUOUS
10
5.3846
20
-3.85354
11
5.378
21
-3.85354
0
LINE
8
BLACK
6
CONTINUOUS
10
5.378
20
-3.85354
11
5.37154
21
-3.85226
0
LINE
8
BLACK
6
CONTINUOUS
10
5.37154
20
-3.85226
11
5.36545
21
-3.84973
0
LINE
8
BLACK
6
CONTINUOUS
10
5.36545
20
-3.84973
11
5.35997
21
-3.84607
0
LINE
8
BLACK
6
CONTINUOUS
10
5.35997
20
-3.84607
11
5.35531
21
-3.84141
0
LINE
8
BLACK
6
CONTINUOUS
10
5.35531
20
-3.84141
11
5.35164
21
-3.83593
0
LINE
8
BLACK
6
CONTINUOUS
10
5.35164
20
-3.83593
11
5.34912
21
-3.82984
0
LINE
8
BLACK
6
CONTINUOUS
10
5.34912
20
-3.82984
11
5.34783
21
-3.82337
0
LINE
8
BLACK
6
CONTINUOUS
10
5.34783
20
-3.82337
11
5.34783
21
-3.81678
0
LINE
8
BLACK
6
CONTINUOUS
10
5.34783
20
-3.81678
11
5.34912
21
-3.81032
0
LINE
8
BLACK
6
CONTINUOUS
10
5.34912
20
-3.81032
11
5.35164
21
-3.80423
0
LINE
8
BLACK
6
CONTINUOUS
10
5.35164
20
-3.80423
11
5.35531
21
-3.79875
0
LINE
8
BLACK
6
CONTINUOUS
10
5.35531
20
-3.79875
11
5.35997
21
-3.79409
0
LINE
8
BLACK
6
CONTINUOUS
10
5.35997
20
-3.79409
11
5.36545
21
-3.79042
0
LINE
8
BLACK
6
CONTINUOUS
10
5.36545
20
-3.79042
11
5.37154
21
-3.7879
0
LINE
8
BLACK
6
CONTINUOUS
10
5.37154
20
-3.7879
11
5.378
21
-3.78661
0
LINE
8
BLACK
6
CONTINUOUS
10
5.378
20
-3.78661
11
5.3846
21
-3.78661
0
LINE
8
BLACK
6
CONTINUOUS
10
5.3846
20
-3.78661
11
5.39106
21
-3.7879
0
LINE
8
BLACK
6
CONTINUOUS
10
4.48161
20
-3.6879
11
4.4877
21
-3.69042
0
LINE
8
BLACK
6
CONTINUOUS
10
4.4877
20
-3.69042
11
4.49318
21
-3.69409
0
LINE
8
BLACK
6
CONTINUOUS
10
4.49318
20
-3.69409
11
4.49784
21
-3.69875
0
LINE
8
BLACK
6
CONTINUOUS
10
4.49784
20
-3.69875
11
4.50151
21
-3.70423
0
LINE
8
BLACK
6
CONTINUOUS
10
4.50151
20
-3.70423
11
4.50403
21
-3.71032
0
LINE
8
BLACK
6
CONTINUOUS
10
4.50403
20
-3.71032
11
4.50531
21
-3.71678
0
LINE
8
BLACK
6
CONTINUOUS
10
4.50531
20
-3.71678
11
4.50531
21
-3.72337
0
LINE
8
BLACK
6
CONTINUOUS
10
4.50531
20
-3.72337
11
4.50403
21
-3.72984
0
LINE
8
BLACK
6
CONTINUOUS
10
4.50403
20
-3.72984
11
4.50151
21
-3.73593
0
LINE
8
BLACK
6
CONTINUOUS
10
4.50151
20
-3.73593
11
4.49784
21
-3.74141
0
LINE
8
BLACK
6
CONTINUOUS
10
4.49784
20
-3.74141
11
4.49318
21
-3.74607
0
LINE
8
BLACK
6
CONTINUOUS
10
4.49318
20
-3.74607
11
4.4877
21
-3.74973
0
LINE
8
BLACK
6
CONTINUOUS
10
4.4877
20
-3.74973
11
4.48161
21
-3.75226
0
LINE
8
BLACK
6
CONTINUOUS
10
4.48161
20
-3.75226
11
4.47515
21
-3.75354
0
LINE
8
BLACK
6
CONTINUOUS
10
4.47515
20
-3.75354
11
4.46855
21
-3.75354
0
LINE
8
BLACK
6
CONTINUOUS
10
4.46855
20
-3.75354
11
4.46209
21
-3.75226
0
LINE
8
BLACK
6
CONTINUOUS
10
4.46209
20
-3.75226
11
4.456
21
-3.74973
0
LINE
8
BLACK
6
CONTINUOUS
10
4.456
20
-3.74973
11
4.45052
21
-3.74607
0
LINE
8
BLACK
6
CONTINUOUS
10
4.45052
20
-3.74607
11
4.44586
21
-3.74141
0
LINE
8
BLACK
6
CONTINUOUS
10
4.44586
20
-3.74141
11
4.44219
21
-3.73593
0
LINE
8
BLACK
6
CONTINUOUS
10
4.44219
20
-3.73593
11
4.43967
21
-3.72984
0
LINE
8
BLACK
6
CONTINUOUS
10
4.43967
20
-3.72984
11
4.43839
21
-3.72337
0
LINE
8
BLACK
6
CONTINUOUS
10
4.43839
20
-3.72337
11
4.43839
21
-3.71678
0
LINE
8
BLACK
6
CONTINUOUS
10
4.43839
20
-3.71678
11
4.43967
21
-3.71032
0
LINE
8
BLACK
6
CONTINUOUS
10
4.43967
20
-3.71032
11
4.44219
21
-3.70423
0
LINE
8
BLACK
6
CONTINUOUS
10
4.44219
20
-3.70423
11
4.44586
21
-3.69875
0
LINE
8
BLACK
6
CONTINUOUS
10
4.44586
20
-3.69875
11
4.45052
21
-3.69409
0
LINE
8
BLACK
6
CONTINUOUS
10
4.45052
20
-3.69409
11
4.456
21
-3.69042
0
LINE
8
BLACK
6
CONTINUOUS
10
4.456
20
-3.69042
11
4.46209
21
-3.6879
0
LINE
8
BLACK
6
CONTINUOUS
10
4.46209
20
-3.6879
11
4.46855
21
-3.68661
0
LINE
8
BLACK
6
CONTINUOUS
10
4.46855
20
-3.68661
11
4.47515
21
-3.68661
0
LINE
8
BLACK
6
CONTINUOUS
10
4.47515
20
-3.68661
11
4.48161
21
-3.6879
0
LINE
8
BLACK
6
CONTINUOUS
10
5.39106
20
-3.6879
11
5.39715
21
-3.69042
0
LINE
8
BLACK
6
CONTINUOUS
10
5.39715
20
-3.69042
11
5.40263
21
-3.69409
0
LINE
8
BLACK
6
CONTINUOUS
10
5.40263
20
-3.69409
11
5.40729
21
-3.69875
0
LINE
8
BLACK
6
CONTINUOUS
10
5.40729
20
-3.69875
11
5.41096
21
-3.70423
0
LINE
8
BLACK
6
CONTINUOUS
10
5.41096
20
-3.70423
11
5.41348
21
-3.71032
0
LINE
8
BLACK
6
CONTINUOUS
10
5.41348
20
-3.71032
11
5.41476
21
-3.71678
0
LINE
8
BLACK
6
CONTINUOUS
10
5.41476
20
-3.71678
11
5.41476
21
-3.72337
0
LINE
8
BLACK
6
CONTINUOUS
10
5.41476
20
-3.72337
11
5.41348
21
-3.72984
0
LINE
8
BLACK
6
CONTINUOUS
10
5.41348
20
-3.72984
11
5.41096
21
-3.73593
0
LINE
8
BLACK
6
CONTINUOUS
10
5.41096
20
-3.73593
11
5.40729
21
-3.74141
0
LINE
8
BLACK
6
CONTINUOUS
10
5.40729
20
-3.74141
11
5.40263
21
-3.74607
0
LINE
8
BLACK
6
CONTINUOUS
10
5.40263
20
-3.74607
11
5.39715
21
-3.74973
0
LINE
8
BLACK
6
CONTINUOUS
10
5.39715
20
-3.74973
11
5.39106
21
-3.75226
0
LINE
8
BLACK
6
CONTINUOUS
10
5.39106
20
-3.75226
11
5.3846
21
-3.75354
0
LINE
8
BLACK
6
CONTINUOUS
10
5.3846
20
-3.75354
11
5.378
21
-3.75354
0
LINE
8
BLACK
6
CONTINUOUS
10
5.378
20
-3.75354
11
5.37154
21
-3.75226
0
LINE
8
BLACK
6
CONTINUOUS
10
5.37154
20
-3.75226
11
5.36545
21
-3.74973
0
LINE
8
BLACK
6
CONTINUOUS
10
5.36545
20
-3.74973
11
5.35997
21
-3.74607
0
LINE
8
BLACK
6
CONTINUOUS
10
5.35997
20
-3.74607
11
5.35531
21
-3.74141
0
LINE
8
BLACK
6
CONTINUOUS
10
5.35531
20
-3.74141
11
5.35164
21
-3.73593
0
LINE
8
BLACK
6
CONTINUOUS
10
5.35164
20
-3.73593
11
5.34912
21
-3.72984
0
LINE
8
BLACK
6
CONTINUOUS
10
5.34912
20
-3.72984
11
5.34783
21
-3.72337
0
LINE
8
BLACK
6
CONTINUOUS
10
5.34783
20
-3.72337
11
5.34783
21
-3.71678
0
LINE
8
BLACK
6
CONTINUOUS
10
5.34783
20
-3.71678
11
5.34912
21
-3.71032
0
LINE
8
BLACK
6
CONTINUOUS
10
5.34912
20
-3.71032
11
5.35164
21
-3.70423
0
LINE
8
BLACK
6
CONTINUOUS
10
5.35164
20
-3.70423
11
5.35531
21
-3.69875
0
LINE
8
BLACK
6
CONTINUOUS
10
5.35531
20
-3.69875
11
5.35997
21
-3.69409
0
LINE
8
BLACK
6
CONTINUOUS
10
5.35997
20
-3.69409
11
5.36545
21
-3.69042
0
LINE
8
BLACK
6
CONTINUOUS
10
5.36545
20
-3.69042
11
5.37154
21
-3.6879
0
LINE
8
BLACK
6
CONTINUOUS
10
5.37154
20
-3.6879
11
5.378
21
-3.68661
0
LINE
8
BLACK
6
CONTINUOUS
10
5.378
20
-3.68661
11
5.3846
21
-3.68661
0
LINE
8
BLACK
6
CONTINUOUS
10
5.3846
20
-3.68661
11
5.39106
21
-3.6879
0
LINE
8
BLACK
6
CONTINUOUS
10
4.48161
20
-3.5879
11
4.4877
21
-3.59042
0
LINE
8
BLACK
6
CONTINUOUS
10
4.4877
20
-3.59042
11
4.49318
21
-3.59409
0
LINE
8
BLACK
6
CONTINUOUS
10
4.49318
20
-3.59409
11
4.49784
21
-3.59875
0
LINE
8
BLACK
6
CONTINUOUS
10
4.49784
20
-3.59875
11
4.50151
21
-3.60423
0
LINE
8
BLACK
6
CONTINUOUS
10
4.50151
20
-3.60423
11
4.50403
21
-3.61032
0
LINE
8
BLACK
6
CONTINUOUS
10
4.50403
20
-3.61032
11
4.50531
21
-3.61678
0
LINE
8
BLACK
6
CONTINUOUS
10
4.50531
20
-3.61678
11
4.50531
21
-3.62337
0
LINE
8
BLACK
6
CONTINUOUS
10
4.50531
20
-3.62337
11
4.50403
21
-3.62984
0
LINE
8
BLACK
6
CONTINUOUS
10
4.50403
20
-3.62984
11
4.50151
21
-3.63593
0
LINE
8
BLACK
6
CONTINUOUS
10
4.50151
20
-3.63593
11
4.49784
21
-3.64141
0
LINE
8
BLACK
6
CONTINUOUS
10
4.49784
20
-3.64141
11
4.49318
21
-3.64607
0
LINE
8
BLACK
6
CONTINUOUS
10
4.49318
20
-3.64607
11
4.4877
21
-3.64973
0
LINE
8
BLACK
6
CONTINUOUS
10
4.4877
20
-3.64973
11
4.48161
21
-3.65226
0
LINE
8
BLACK
6
CONTINUOUS
10
4.48161
20
-3.65226
11
4.47515
21
-3.65354
0
LINE
8
BLACK
6
CONTINUOUS
10
4.47515
20
-3.65354
11
4.46855
21
-3.65354
0
LINE
8
BLACK
6
CONTINUOUS
10
4.46855
20
-3.65354
11
4.46209
21
-3.65226
0
LINE
8
BLACK
6
CONTINUOUS
10
4.46209
20
-3.65226
11
4.456
21
-3.64973
0
LINE
8
BLACK
6
CONTINUOUS
10
4.456
20
-3.64973
11
4.45052
21
-3.64607
0
LINE
8
BLACK
6
CONTINUOUS
10
4.45052
20
-3.64607
11
4.44586
21
-3.64141
0
LINE
8
BLACK
6
CONTINUOUS
10
4.44586
20
-3.64141
11
4.44219
21
-3.63593
0
LINE
8
BLACK
6
CONTINUOUS
10
4.44219
20
-3.63593
11
4.43967
21
-3.62984
0
LINE
8
BLACK
6
CONTINUOUS
10
4.43967
20
-3.62984
11
4.43839
21
-3.62337
0
LINE
8
BLACK
6
CONTINUOUS
10
4.43839
20
-3.62337
11
4.43839
21
-3.61678
0
LINE
8
BLACK
6
CONTINUOUS
10
4.43839
20
-3.61678
11
4.43967
21
-3.61032
0
LINE
8
BLACK
6
CONTINUOUS
10
4.43967
20
-3.61032
11
4.44219
21
-3.60423
0
LINE
8
BLACK
6
CONTINUOUS
10
4.44219
20
-3.60423
11
4.44586
21
-3.59875
0
LINE
8
BLACK
6
CONTINUOUS
10
4.44586
20
-3.59875
11
4.45052
21
-3.59409
0
LINE
8
BLACK
6
CONTINUOUS
10
4.45052
20
-3.59409
11
4.456
21
-3.59042
0
LINE
8
BLACK
6
CONTINUOUS
10
4.456
20
-3.59042
11
4.46209
21
-3.5879
0
LINE
8
BLACK
6
CONTINUOUS
10
4.46209
20
-3.5879
11
4.46855
21
-3.58661
0
LINE
8
BLACK
6
CONTINUOUS
10
4.46855
20
-3.58661
11
4.47515
21
-3.58661
0
LINE
8
BLACK
6
CONTINUOUS
10
4.47515
20
-3.58661
11
4.48161
21
-3.5879
0
LINE
8
BLACK
6
CONTINUOUS
10
5.39106
20
-3.5879
11
5.39715
21
-3.59042
0
LINE
8
BLACK
6
CONTINUOUS
10
5.39715
20
-3.59042
11
5.40263
21
-3.59409
0
LINE
8
BLACK
6
CONTINUOUS
10
5.40263
20
-3.59409
11
5.40729
21
-3.59875
0
LINE
8
BLACK
6
CONTINUOUS
10
5.40729
20
-3.59875
11
5.41096
21
-3.60423
0
LINE
8
BLACK
6
CONTINUOUS
10
5.41096
20
-3.60423
11
5.41348
21
-3.61032
0
LINE
8
BLACK
6
CONTINUOUS
10
5.41348
20
-3.61032
11
5.41476
21
-3.61678
0
LINE
8
BLACK
6
CONTINUOUS
10
5.41476
20
-3.61678
11
5.41476
21
-3.62337
0
LINE
8
BLACK
6
CONTINUOUS
10
5.41476
20
-3.62337
11
5.41348
21
-3.62984
0
LINE
8
BLACK
6
CONTINUOUS
10
5.41348
20
-3.62984
11
5.41096
21
-3.63593
0
LINE
8
BLACK
6
CONTINUOUS
10
5.41096
20
-3.63593
11
5.40729
21
-3.64141
0
LINE
8
BLACK
6
CONTINUOUS
10
5.40729
20
-3.64141
11
5.40263
21
-3.64607
0
LINE
8
BLACK
6
CONTINUOUS
10
5.40263
20
-3.64607
11
5.39715
21
-3.64973
0
LINE
8
BLACK
6
CONTINUOUS
10
5.39715
20
-3.64973
11
5.39106
21
-3.65226
0
LINE
8
BLACK
6
CONTINUOUS
10
5.39106
20
-3.65226
11
5.3846
21
-3.65354
0
LINE
8
BLACK
6
CONTINUOUS
10
5.3846
20
-3.65354
11
5.378
21
-3.65354
0
LINE
8
BLACK
6
CONTINUOUS
10
5.378
20
-3.65354
11
5.37154
21
-3.65226
0
LINE
8
BLACK
6
CONTINUOUS
10
5.37154
20
-3.65226
11
5.36545
21
-3.64973
0
LINE
8
BLACK
6
CONTINUOUS
10
5.36545
20
-3.64973
11
5.35997
21
-3.64607
0
LINE
8
BLACK
6
CONTINUOUS
10
5.35997
20
-3.64607
11
5.35531
21
-3.64141
0
LINE
8
BLACK
6
CONTINUOUS
10
5.35531
20
-3.64141
11
5.35164
21
-3.63593
0
LINE
8
BLACK
6
CONTINUOUS
10
5.35164
20
-3.63593
11
5.34912
21
-3.62984
0
LINE
8
BLACK
6
CONTINUOUS
10
5.34912
20
-3.62984
11
5.34783
21
-3.62337
0
LINE
8
BLACK
6
CONTINUOUS
10
5.34783
20
-3.62337
11
5.34783
21
-3.61678
0
LINE
8
BLACK
6
CONTINUOUS
10
5.34783
20
-3.61678
11
5.34912
21
-3.61032
0
LINE
8
BLACK
6
CONTINUOUS
10
5.34912
20
-3.61032
11
5.35164
21
-3.60423
0
LINE
8
BLACK
6
CONTINUOUS
10
5.35164
20
-3.60423
11
5.35531
21
-3.59875
0
LINE
8
BLACK
6
CONTINUOUS
10
5.35531
20
-3.59875
11
5.35997
21
-3.59409
0
LINE
8
BLACK
6
CONTINUOUS
10
5.35997
20
-3.59409
11
5.36545
21
-3.59042
0
LINE
8
BLACK
6
CONTINUOUS
10
5.36545
20
-3.59042
11
5.37154
21
-3.5879
0
LINE
8
BLACK
6
CONTINUOUS
10
5.37154
20
-3.5879
11
5.378
21
-3.58661
0
LINE
8
BLACK
6
CONTINUOUS
10
5.378
20
-3.58661
11
5.3846
21
-3.58661
0
LINE
8
BLACK
6
CONTINUOUS
10
5.3846
20
-3.58661
11
5.39106
21
-3.5879
  0
ENDSEC
  0
EOF
