  0
SECTION
  2
HEADER
  9
$ANGBASE
  50
0.0
  9
$ANGDIR
  70
1
  9
$MEASUREMENT
  70
0
  0
ENDSEC
  0
SECTION
  2
TABLES
  0
TABLE
  2
LTYPE
  70
4
  0
LTYPE
  5
40F
  2
CONTINUOUS
  70
0
  3
Solid line
  72
65
  73
0
  40
0.0
  0
LTYPE
  5
410
  2
DASHDOT
 70
0
  3
Dash Dot ____ _ ____ _
 72
65
 73
4
 40
2.0
 49
1.25
 49
-0.25
 49
0.25
 49
-0.25
  0
LTYPE
  5
411
  2
DASHED
 70
0
  3
Dashed __ __ __ __ __
 72
65
 73
2
 40
0.75
 49
0.5
 49
-0.25
  0
LTYPE
  5
43B
  2
DOTTED
 70
0
  3
Dotted .  .  .  .
 72
65
 73
2
 40
0.2
 49
0.0
 49
-0.2
  0
ENDTAB
  0
TABLE
  2
STYLE
  70
4
  0
STYLE
  2
KICAD
  70
0
  40
0
  41
1
  42
1
  50
0
  71
0
  3
isocp.shx
  0
STYLE
  2
KICADB
  70
0
  40
0
  41
1
  42
1
  50
0
  71
0
  3
isocp.shx
  0
STYLE
  2
KICADI
  70
0
  40
0
  41
1
  42
1
  50
15
  71
0
  3
isocp.shx
  0
STYLE
  2
KICADBI
  70
0
  40
0
  41
1
  42
1
  50
15
  71
0
  3
isocp.shx
  0
ENDTAB
  0
TABLE
  2
LAYER
  70
1
  0
LAYER
  2
BLACK
  70
0
  62
7
  6
CONTINUOUS
  0
ENDTAB
  0
ENDSEC
  0
SECTION
  2
ENTITIES
0
LINE
8
BLACK
6
CONTINUOUS
10
5.80614
20
-3.20105
11
5.80658
21
-3.20109
0
LINE
8
BLACK
6
CONTINUOUS
10
5.80658
20
-3.20109
11
5.80714
21
-3.20126
0
LINE
8
BLACK
6
CONTINUOUS
10
5.80714
20
-3.20126
11
5.80765
21
-3.20153
0
LINE
8
BLACK
6
CONTINUOUS
10
5.80765
20
-3.20153
11
5.8081
21
-3.2019
0
LINE
8
BLACK
6
CONTINUOUS
10
5.8081
20
-3.2019
11
5.80847
21
-3.20235
0
LINE
8
BLACK
6
CONTINUOUS
10
5.80847
20
-3.20235
11
5.80874
21
-3.20286
0
LINE
8
BLACK
6
CONTINUOUS
10
5.80874
20
-3.20286
11
5.80891
21
-3.20342
0
LINE
8
BLACK
6
CONTINUOUS
10
5.80891
20
-3.20342
11
5.80897
21
-3.204
0
LINE
8
BLACK
6
CONTINUOUS
10
5.80897
20
-3.204
11
5.80895
21
-3.20414
0
LINE
8
BLACK
6
CONTINUOUS
10
5.80895
20
-3.20414
11
5.80895
21
-5.59586
0
LINE
8
BLACK
6
CONTINUOUS
10
5.80895
20
-5.59586
11
5.80897
21
-5.596
0
LINE
8
BLACK
6
CONTINUOUS
10
5.80897
20
-5.596
11
5.80891
21
-5.59658
0
LINE
8
BLACK
6
CONTINUOUS
10
5.80891
20
-5.59658
11
5.80874
21
-5.59714
0
LINE
8
BLACK
6
CONTINUOUS
10
5.80874
20
-5.59714
11
5.80847
21
-5.59765
0
LINE
8
BLACK
6
CONTINUOUS
10
5.80847
20
-5.59765
11
5.8081
21
-5.5981
0
LINE
8
BLACK
6
CONTINUOUS
10
5.8081
20
-5.5981
11
5.80765
21
-5.59847
0
LINE
8
BLACK
6
CONTINUOUS
10
5.80765
20
-5.59847
11
5.80714
21
-5.59874
0
LINE
8
BLACK
6
CONTINUOUS
10
5.80714
20
-5.59874
11
5.80658
21
-5.59891
0
LINE
8
BLACK
6
CONTINUOUS
10
5.80658
20
-5.59891
11
5.80614
21
-5.59895
0
LINE
8
BLACK
6
CONTINUOUS
10
5.80614
20
-5.59895
11
5.806
21
-5.59897
0
LINE
8
BLACK
6
CONTINUOUS
10
5.806
20
-5.59897
11
5.80586
21
-5.59895
0
LINE
8
BLACK
6
CONTINUOUS
10
5.80586
20
-5.59895
11
4.18614
21
-5.59895
0
LINE
8
BLACK
6
CONTINUOUS
10
4.18614
20
-5.59895
11
4.186
21
-5.59897
0
LINE
8
BLACK
6
CONTINUOUS
10
4.186
20
-5.59897
11
4.18542
21
-5.59891
0
LINE
8
BLACK
6
CONTINUOUS
10
4.18542
20
-5.59891
11
4.18486
21
-5.59874
0
LINE
8
BLACK
6
CONTINUOUS
10
4.18486
20
-5.59874
11
4.18435
21
-5.59847
0
LINE
8
BLACK
6
CONTINUOUS
10
4.18435
20
-5.59847
11
4.1839
21
-5.5981
0
LINE
8
BLACK
6
CONTINUOUS
10
4.1839
20
-5.5981
11
4.18353
21
-5.59765
0
LINE
8
BLACK
6
CONTINUOUS
10
4.18353
20
-5.59765
11
4.18326
21
-5.59714
0
LINE
8
BLACK
6
CONTINUOUS
10
4.18326
20
-5.59714
11
4.18309
21
-5.59658
0
LINE
8
BLACK
6
CONTINUOUS
10
4.18309
20
-5.59658
11
4.18303
21
-5.596
0
LINE
8
BLACK
6
CONTINUOUS
10
4.18303
20
-5.596
11
4.18305
21
-5.59586
0
LINE
8
BLACK
6
CONTINUOUS
10
4.18305
20
-5.59586
11
4.18305
21
-3.20415
0
LINE
8
BLACK
6
CONTINUOUS
10
4.18305
20
-3.20415
11
4.18303
21
-3.204
0
LINE
8
BLACK
6
CONTINUOUS
10
4.18303
20
-3.204
11
4.18309
21
-3.20342
0
LINE
8
BLACK
6
CONTINUOUS
10
4.18309
20
-3.20342
11
4.18326
21
-3.20286
0
LINE
8
BLACK
6
CONTINUOUS
10
4.18326
20
-3.20286
11
4.18353
21
-3.20235
0
LINE
8
BLACK
6
CONTINUOUS
10
4.18353
20
-3.20235
11
4.1839
21
-3.2019
0
LINE
8
BLACK
6
CONTINUOUS
10
4.1839
20
-3.2019
11
4.18435
21
-3.20153
0
LINE
8
BLACK
6
CONTINUOUS
10
4.18435
20
-3.20153
11
4.18486
21
-3.20126
0
LINE
8
BLACK
6
CONTINUOUS
10
4.18486
20
-3.20126
11
4.18542
21
-3.20109
0
LINE
8
BLACK
6
CONTINUOUS
10
4.18542
20
-3.20109
11
4.18586
21
-3.20105
0
LINE
8
BLACK
6
CONTINUOUS
10
4.18586
20
-3.20105
11
4.186
21
-3.20103
0
LINE
8
BLACK
6
CONTINUOUS
10
4.186
20
-3.20103
11
4.18614
21
-3.20105
0
LINE
8
BLACK
6
CONTINUOUS
10
4.18614
20
-3.20105
11
5.80586
21
-3.20105
0
LINE
8
BLACK
6
CONTINUOUS
10
5.80586
20
-3.20105
11
5.806
21
-3.20103
0
LINE
8
BLACK
6
CONTINUOUS
10
5.806
20
-3.20103
11
5.80614
21
-3.20105
0
LINE
8
BLACK
6
CONTINUOUS
10
4.18895
20
-3.20695
11
4.18895
21
-5.59305
0
LINE
8
BLACK
6
CONTINUOUS
10
4.18895
20
-5.59305
11
5.80305
21
-5.59305
0
LINE
8
BLACK
6
CONTINUOUS
10
5.80305
20
-5.59305
11
5.80305
21
-3.20695
0
LINE
8
BLACK
6
CONTINUOUS
10
5.80305
20
-3.20695
11
4.18895
21
-3.20695
  0
ENDSEC
  0
EOF
